<?xml version='1.0' encoding='utf-8'?>
<svg xmlns="http://www.w3.org/2000/svg" viewBox="0 0 136 136"> <defs> <filter id="e"> <feGaussianBlur stdDeviation="1.9238"/> </filter> <linearGradient id="c" x2="0" y1="598.35" y2="465.22" gradientUnits="userSpaceOnUse"> <stop stop-color="#900" offset="0"/> <stop stop-color="#ff8686" offset="1"/> </linearGradient> <linearGradient id="d" x2="0" y1="594.95" y2="465.37" gradientUnits="userSpaceOnUse"> <stop stop-color="#f00" offset="0"/> <stop stop-color="#d10000" offset="1"/> </linearGradient> <linearGradient id="a" x1="-344.15" x2="-395.85" y1="274.71" y2="425.4" gradientTransform="matrix(-.67946 0 0 .62779 83.907 267.89)" gradientUnits="userSpaceOnUse"> <stop stop-color="#fff" offset="0"/> <stop stop-color="#fff" stop-opacity="0" offset="1"/> </linearGradient> <linearGradient id="b" x1="348.73" x2="376.76" y1="484.22" y2="626.24" gradientUnits="userSpaceOnUse"> <stop stop-color="#ffe3e3" offset="0"/> <stop stop-color="#fff" offset="1"/> </linearGradient> </defs> <g transform="translate(-282 -464.36)"> <path d="m302.26 467.48h95.485a17.143 17.143 0 0 1 17.143 17.143v95.485a17.143 17.143 0 0 1-17.143 17.143h-95.485a17.143 17.143 0 0 1-17.143-17.143v-95.485a17.143 17.143 0 0 1 17.143-17.143" fill="#f00" stroke="url(#c)" stroke-width="3"/> <path d="m302.26 467.48h95.485a17.143 17.143 0 0 1 17.143 17.143v95.485a17.143 17.143 0 0 1-17.143 17.143h-95.485a17.143 17.143 0 0 1-17.143-17.143v-95.485a17.143 17.143 0 0 1 17.143-17.143" fill="url(#d)"/> <path d="m337.06 536.43c-0.0762 8.1801 4.4913 14.585 12.298 13.907s9.91-7.0576 9.9277-14.412-1.7226-13.047-10.029-14.249-12.12 6.5739-12.196 14.754zm26.203 9.5488c-1.0183 2.5742-1.237 10.135-6.5684 12.325-2.2571 1.4321-6.5897 2.1482-9.6104 2.1482-5.8379 2e-5 -10.581-2.257-14.23-6.7709s-5.473-10.397-5.473-17.648 1.8328-13.143 5.4984-17.675 8.4003-6.7981 14.204-6.7981c3.0207 3e-5 7.3533 0.72518 9.6104 2.1754s3.8946 3.4626 4.9129 6.0367c-0.59401-4.0472 3.5408-6.9842 5.9115-5.7349s2.9617 8.1563 2.96 15.93-0.51493 14.501 2.715 17.59 6.5718-0.0761 8.9817-3.72 3.6146-8.3118 3.6147-14.004c-7e-5 -3.6256-0.49222-7.0246-1.4764-10.197s-2.4778-6.082-4.4802-8.7288c-3.2244-4.4232-7.2549-7.8314-12.091-10.224s-10.072-3.5893-15.706-3.5894c-3.9372 7e-5 -7.7046 0.55298-11.302 1.6588s-6.924 2.7284-9.9786 4.8674c-5.0233 3.5532-8.9349 8.1487-11.735 13.787s-4.2002 11.738-4.2002 18.3c-1e-5 5.4022 0.90789 10.469 2.7237 15.201s4.4377 8.91 7.8658 12.536c3.394 3.5532 7.2887 6.2633 11.684 8.1305s9.0876 2.8008 14.077 2.8008c4.2765 0 8.553-0.85203 12.83-2.5561 0 0 8.6418-4.5314 10.832 0.78252s-8.3116 9.1971-8.3116 9.1971c-5.0063 1.8672-10.089 2.8008-15.248 2.8008-6.2791-1e-5 -12.202-1.1874-17.768-3.5622s-10.522-5.8283-14.866-10.36-7.6536-9.7802-9.9277-15.744-3.411-12.372-3.411-19.225c-1e-5 -6.5987 1.154-12.889 3.462-18.872s5.6002-11.239 9.8768-15.772c4.2765-4.4957 9.2573-7.9764 14.942-10.442s11.582-3.6981 17.692-3.6982c7.6027 7e-5 14.51 1.55 20.721 4.6499s11.404 7.5686 15.579 13.406c2.5455 3.5532 4.4716 7.4054 5.7784 11.557s1.96 8.5113 1.9601 13.08c-1e-4 9.8256-2.7663 17.458-8.2985 22.896s-9.2716 7.4425-14.314 6.3893c-6.4147-1.3398-9.4352-10.056-9.4352-12.923z" filter="url(#e)" opacity=".25" stroke="#000" stroke-width="3"/> <path d="m334.75 533.03c-0.0762 8.1801 4.4913 14.585 12.298 13.907s9.91-7.0576 9.9277-14.412-1.7226-13.047-10.029-14.249-12.12 6.5739-12.196 14.754zm26.203 9.5488c-1.0183 2.5742-1.237 10.135-6.5684 12.325-2.2571 1.4321-6.5897 2.1482-9.6104 2.1482-5.8379 2e-5 -10.581-2.257-14.23-6.7709s-5.473-10.397-5.473-17.648 1.8328-13.143 5.4984-17.675 8.4003-6.7981 14.204-6.7981c3.0207 3e-5 7.3533 0.72518 9.6104 2.1754s3.8946 3.4626 4.9129 6.0367c-0.59401-4.0472 3.5408-6.9842 5.9115-5.7349s2.9617 8.1563 2.96 15.93-0.51493 14.501 2.715 17.59 6.5718-0.0761 8.9817-3.72 3.6146-8.3118 3.6147-14.004c-7e-5 -3.6256-0.49222-7.0246-1.4764-10.197s-2.4778-6.082-4.4802-8.7288c-3.2244-4.4232-7.2549-7.8314-12.091-10.224s-10.072-3.5893-15.706-3.5894c-3.9372 7e-5 -7.7046 0.55298-11.302 1.6588s-6.924 2.7284-9.9786 4.8674c-5.0233 3.5532-8.9349 8.1487-11.735 13.787s-4.2002 11.738-4.2002 18.3c-1e-5 5.4022 0.90789 10.469 2.7237 15.201s4.4377 8.91 7.8658 12.536c3.394 3.5532 7.2887 6.2633 11.684 8.1305s9.0876 2.8008 14.077 2.8008c4.2765 0 8.553-0.85203 12.83-2.5561 0 0 8.6418-4.5314 10.832 0.78252s-8.3116 9.1971-8.3116 9.1971c-5.0063 1.8672-10.089 2.8008-15.248 2.8008-6.2791-1e-5 -12.202-1.1874-17.768-3.5622s-10.522-5.8283-14.866-10.36-7.6536-9.7802-9.9277-15.744-3.411-12.372-3.411-19.225c-1e-5 -6.5987 1.154-12.889 3.462-18.872s5.6002-11.239 9.8768-15.772c4.2765-4.4957 9.2573-7.9764 14.942-10.442s11.582-3.6981 17.692-3.6982c7.6027 7e-5 14.51 1.55 20.721 4.6499s11.404 7.5686 15.579 13.406c2.5455 3.5532 4.4716 7.4054 5.7784 11.557s1.96 8.5113 1.9601 13.08c-1e-4 9.8256-2.7663 17.458-8.2985 22.896s-9.2716 7.4425-14.314 6.3893c-6.4147-1.3398-9.4352-10.056-9.4352-12.923z" fill="url(#b)"/> <path d="m391.19 468.4h-75.698c-23.751 0-29.378 7.1854-29.378 27.144v67.823c0.6092 13.574 2.9526 4.9929 7.4131-10.04 5.1841-17.471 22.067-32.741 42.628-44.184 15.693-8.7346 33.26-14.263 65.233-14.843 16.593-0.3009 17.457-26.706-10.198-25.9z" fill="url(#a)" fill-rule="evenodd"/> </g> </svg>