<svg width="48" height="48" viewBox="0 0 48 48" fill="none" xmlns="http://www.w3.org/2000/svg">
<g clip-path="url(#clip0_1_2)">
<mask id="path-1-outside-1_1_2" maskUnits="userSpaceOnUse" x="1" y="10" width="47" height="29" fill="black">
<rect fill="white" x="1" y="10" width="47" height="29"/>
<path d="M4.89844 11.7578C6.46875 11.8281 7.6875 11.8633 8.55469 11.8633H9.85547C10.2305 11.8633 10.6992 11.8516 11.2617 11.8281C11.7305 11.8047 12.3281 11.793 13.0547 11.793C13.7812 11.7695 14.6484 11.7344 15.6562 11.6875C15.1875 12.0156 14.8125 12.332 14.5312 12.6367C14.25 12.9414 14.0273 13.2109 13.8633 13.4453C13.6758 13.7266 13.5469 13.9844 13.4766 14.2188C13.3125 14.8281 13.2422 15.6602 13.2656 16.7148C13.3125 17.7461 13.418 18.8711 13.582 20.0898C13.7461 21.2852 13.9453 22.5039 14.1797 23.7461C14.4141 24.9883 14.6484 26.1133 14.8828 27.1211C15.1406 28.1289 15.3633 28.9609 15.5508 29.6172C15.7617 30.25 15.9141 30.5664 16.0078 30.5664C16.1016 30.5664 16.2773 30.2266 16.5352 29.5469C16.8164 28.8672 17.1328 28.0117 17.4844 26.9805C17.8359 25.9258 18.1992 24.7891 18.5742 23.5703C18.9492 22.3281 19.2891 21.1562 19.5938 20.0547C19.9219 18.9297 20.1914 17.9688 20.4023 17.1719C20.6133 16.3516 20.7188 15.8477 20.7188 15.6602C20.6953 15.4023 20.6133 15.1328 20.4727 14.8516C20.3555 14.5937 20.1445 14.3008 19.8398 13.9727C19.5586 13.6211 19.1602 13.2227 18.6445 12.7773C19.3711 12.7539 19.9922 12.7305 20.5078 12.707C21.0469 12.6836 21.5039 12.6719 21.8789 12.6719H22.9688H28.5938C28.0078 13.0703 27.5039 13.457 27.082 13.832C26.6836 14.207 26.3555 14.5586 26.0977 14.8867C25.793 15.2617 25.5352 15.6133 25.3242 15.9414C25.0898 16.4336 24.7031 17.5 24.1641 19.1406C23.9297 19.8438 23.6602 20.6992 23.3555 21.707C23.0508 22.7148 22.6875 23.9219 22.2656 25.3281C21.8438 26.7344 21.375 28.3633 20.8594 30.2148C20.3438 32.043 19.7578 34.1289 19.1016 36.4727L14.2148 37.1055C13.6289 35.2773 13.1133 33.6133 12.668 32.1133C12.2461 30.5898 11.8711 29.2891 11.543 28.2109C11.168 26.9453 10.8516 25.8086 10.5938 24.8008C10.2422 23.582 9.9375 22.3516 9.67969 21.1094C9.44531 19.8438 9.23438 18.707 9.04688 17.6992C8.88281 16.668 8.73047 15.8125 8.58984 15.1328C8.44922 14.4531 8.29688 14.0547 8.13281 13.9375C7.99219 13.8203 7.78125 13.668 7.5 13.4805C7.24219 13.3164 6.91406 13.1055 6.51562 12.8477C6.09375 12.5664 5.55469 12.2031 4.89844 11.7578ZM24.7969 11.9336C25.6172 12.0508 26.332 12.1445 26.9414 12.2148C27.5508 12.2852 28.0547 12.3437 28.4531 12.3906C28.9219 12.4375 29.3203 12.4727 29.6484 12.4961C30.0234 12.543 30.4805 12.5195 31.0195 12.4258C31.582 12.332 32.1797 12.2383 32.8125 12.1445C33.4453 12.0273 34.1016 11.9336 34.7812 11.8633C35.4609 11.793 36.1172 11.793 36.75 11.8633C37.1719 11.9102 37.7109 12.0039 38.3672 12.1445C39.0234 12.2852 39.7148 12.5078 40.4414 12.8125C41.1914 13.1172 41.9414 13.5156 42.6914 14.0078C43.4414 14.5 44.1211 15.1211 44.7305 15.8711C45.3398 16.6211 45.8438 17.5117 46.2422 18.543C46.6406 19.5742 46.8633 20.7812 46.9102 22.1641C46.9805 24.2266 46.793 26.1016 46.3477 27.7891C45.9023 29.4766 45.2109 30.918 44.2734 32.1133C43.3594 33.3086 42.1992 34.2461 40.793 34.9258C39.3867 35.6055 37.7461 35.9805 35.8711 36.0508C34.4414 36.168 33.0352 36.2734 31.6523 36.3672C31.0664 36.4141 30.4453 36.4492 29.7891 36.4727C29.1562 36.4961 28.5234 36.5195 27.8906 36.543C27.2578 36.543 26.6484 36.5312 26.0625 36.5078C25.4766 36.4844 24.9375 36.4492 24.4453 36.4023C24.9844 36.1445 25.418 35.8867 25.7461 35.6289C26.0977 35.3711 26.3672 35.1484 26.5547 34.9609C26.7656 34.7266 26.918 34.5156 27.0117 34.3281C27.0586 34.0703 27.1289 33.5664 27.2227 32.8164C27.293 32.1836 27.3867 31.2812 27.5039 30.1094C27.6211 28.9375 27.7617 27.3438 27.9258 25.3281L28.1367 22.832C28.2539 21.2852 28.3008 20.0195 28.2773 19.0352C28.2773 18.0508 28.2539 17.2773 28.207 16.7148C28.1367 16.0586 28.043 15.5781 27.9258 15.2734C27.832 15.0156 27.6562 14.7109 27.3984 14.3594C27.1641 14.0781 26.8359 13.7383 26.4141 13.3398C26.0156 12.918 25.4766 12.4492 24.7969 11.9336ZM32.2148 24.8711C32.2617 26.957 32.3672 28.5625 32.5312 29.6875C32.7188 30.7891 32.918 31.6094 33.1289 32.1484C33.3867 32.7578 33.668 33.1211 33.9727 33.2383C34.418 33.2383 34.9219 33.0508 35.4844 32.6758C36.0469 32.2773 36.5977 31.6797 37.1367 30.8828C37.6992 30.0859 38.2031 29.0898 38.6484 27.8945C39.1172 26.6992 39.457 25.3047 39.668 23.7109C39.8789 22.1172 39.8203 20.7109 39.4922 19.4922C39.1641 18.2734 38.7305 17.2539 38.1914 16.4336C37.6523 15.5898 37.1016 14.957 36.5391 14.5352C35.9766 14.0898 35.5547 13.8672 35.2734 13.8672C34.9453 13.8672 34.6523 13.9609 34.3945 14.1484C34.1367 14.3125 33.7734 14.6992 33.3047 15.3086C33.0703 15.6367 32.8594 16.1055 32.6719 16.7148C32.5078 17.2539 32.3672 17.9688 32.25 18.8594C32.1328 19.75 32.0977 20.8984 32.1445 22.3047L32.2148 24.8711Z"/>
</mask>
<path d="M4.89844 11.7578C6.46875 11.8281 7.6875 11.8633 8.55469 11.8633H9.85547C10.2305 11.8633 10.6992 11.8516 11.2617 11.8281C11.7305 11.8047 12.3281 11.793 13.0547 11.793C13.7812 11.7695 14.6484 11.7344 15.6562 11.6875C15.1875 12.0156 14.8125 12.332 14.5312 12.6367C14.25 12.9414 14.0273 13.2109 13.8633 13.4453C13.6758 13.7266 13.5469 13.9844 13.4766 14.2188C13.3125 14.8281 13.2422 15.6602 13.2656 16.7148C13.3125 17.7461 13.418 18.8711 13.582 20.0898C13.7461 21.2852 13.9453 22.5039 14.1797 23.7461C14.4141 24.9883 14.6484 26.1133 14.8828 27.1211C15.1406 28.1289 15.3633 28.9609 15.5508 29.6172C15.7617 30.25 15.9141 30.5664 16.0078 30.5664C16.1016 30.5664 16.2773 30.2266 16.5352 29.5469C16.8164 28.8672 17.1328 28.0117 17.4844 26.9805C17.8359 25.9258 18.1992 24.7891 18.5742 23.5703C18.9492 22.3281 19.2891 21.1562 19.5938 20.0547C19.9219 18.9297 20.1914 17.9688 20.4023 17.1719C20.6133 16.3516 20.7188 15.8477 20.7188 15.6602C20.6953 15.4023 20.6133 15.1328 20.4727 14.8516C20.3555 14.5937 20.1445 14.3008 19.8398 13.9727C19.5586 13.6211 19.1602 13.2227 18.6445 12.7773C19.3711 12.7539 19.9922 12.7305 20.5078 12.707C21.0469 12.6836 21.5039 12.6719 21.8789 12.6719H22.9688H28.5938C28.0078 13.0703 27.5039 13.457 27.082 13.832C26.6836 14.207 26.3555 14.5586 26.0977 14.8867C25.793 15.2617 25.5352 15.6133 25.3242 15.9414C25.0898 16.4336 24.7031 17.5 24.1641 19.1406C23.9297 19.8438 23.6602 20.6992 23.3555 21.707C23.0508 22.7148 22.6875 23.9219 22.2656 25.3281C21.8438 26.7344 21.375 28.3633 20.8594 30.2148C20.3438 32.043 19.7578 34.1289 19.1016 36.4727L14.2148 37.1055C13.6289 35.2773 13.1133 33.6133 12.668 32.1133C12.2461 30.5898 11.8711 29.2891 11.543 28.2109C11.168 26.9453 10.8516 25.8086 10.5938 24.8008C10.2422 23.582 9.9375 22.3516 9.67969 21.1094C9.44531 19.8438 9.23438 18.707 9.04688 17.6992C8.88281 16.668 8.73047 15.8125 8.58984 15.1328C8.44922 14.4531 8.29688 14.0547 8.13281 13.9375C7.99219 13.8203 7.78125 13.668 7.5 13.4805C7.24219 13.3164 6.91406 13.1055 6.51562 12.8477C6.09375 12.5664 5.55469 12.2031 4.89844 11.7578ZM24.7969 11.9336C25.6172 12.0508 26.332 12.1445 26.9414 12.2148C27.5508 12.2852 28.0547 12.3437 28.4531 12.3906C28.9219 12.4375 29.3203 12.4727 29.6484 12.4961C30.0234 12.543 30.4805 12.5195 31.0195 12.4258C31.582 12.332 32.1797 12.2383 32.8125 12.1445C33.4453 12.0273 34.1016 11.9336 34.7812 11.8633C35.4609 11.793 36.1172 11.793 36.75 11.8633C37.1719 11.9102 37.7109 12.0039 38.3672 12.1445C39.0234 12.2852 39.7148 12.5078 40.4414 12.8125C41.1914 13.1172 41.9414 13.5156 42.6914 14.0078C43.4414 14.5 44.1211 15.1211 44.7305 15.8711C45.3398 16.6211 45.8438 17.5117 46.2422 18.543C46.6406 19.5742 46.8633 20.7812 46.9102 22.1641C46.9805 24.2266 46.793 26.1016 46.3477 27.7891C45.9023 29.4766 45.2109 30.918 44.2734 32.1133C43.3594 33.3086 42.1992 34.2461 40.793 34.9258C39.3867 35.6055 37.7461 35.9805 35.8711 36.0508C34.4414 36.168 33.0352 36.2734 31.6523 36.3672C31.0664 36.4141 30.4453 36.4492 29.7891 36.4727C29.1562 36.4961 28.5234 36.5195 27.8906 36.543C27.2578 36.543 26.6484 36.5312 26.0625 36.5078C25.4766 36.4844 24.9375 36.4492 24.4453 36.4023C24.9844 36.1445 25.418 35.8867 25.7461 35.6289C26.0977 35.3711 26.3672 35.1484 26.5547 34.9609C26.7656 34.7266 26.918 34.5156 27.0117 34.3281C27.0586 34.0703 27.1289 33.5664 27.2227 32.8164C27.293 32.1836 27.3867 31.2812 27.5039 30.1094C27.6211 28.9375 27.7617 27.3438 27.9258 25.3281L28.1367 22.832C28.2539 21.2852 28.3008 20.0195 28.2773 19.0352C28.2773 18.0508 28.2539 17.2773 28.207 16.7148C28.1367 16.0586 28.043 15.5781 27.9258 15.2734C27.832 15.0156 27.6562 14.7109 27.3984 14.3594C27.1641 14.0781 26.8359 13.7383 26.4141 13.3398C26.0156 12.918 25.4766 12.4492 24.7969 11.9336ZM32.2148 24.8711C32.2617 26.957 32.3672 28.5625 32.5312 29.6875C32.7188 30.7891 32.918 31.6094 33.1289 32.1484C33.3867 32.7578 33.668 33.1211 33.9727 33.2383C34.418 33.2383 34.9219 33.0508 35.4844 32.6758C36.0469 32.2773 36.5977 31.6797 37.1367 30.8828C37.6992 30.0859 38.2031 29.0898 38.6484 27.8945C39.1172 26.6992 39.457 25.3047 39.668 23.7109C39.8789 22.1172 39.8203 20.7109 39.4922 19.4922C39.1641 18.2734 38.7305 17.2539 38.1914 16.4336C37.6523 15.5898 37.1016 14.957 36.5391 14.5352C35.9766 14.0898 35.5547 13.8672 35.2734 13.8672C34.9453 13.8672 34.6523 13.9609 34.3945 14.1484C34.1367 14.3125 33.7734 14.6992 33.3047 15.3086C33.0703 15.6367 32.8594 16.1055 32.6719 16.7148C32.5078 17.2539 32.3672 17.9688 32.25 18.8594C32.1328 19.75 32.0977 20.8984 32.1445 22.3047L32.2148 24.8711Z" fill="#D9D9D9"/>
<path d="M4.89844 11.7578L4.94317 10.7588L1.4123 10.6007L4.33694 12.5853L4.89844 11.7578ZM11.2617 11.8281L11.3034 12.8273L11.3117 12.8269L11.2617 11.8281ZM13.0547 11.793V12.793H13.0708L13.0869 12.7924L13.0547 11.793ZM15.6562 11.6875L16.2297 12.5067L19.0561 10.5283L15.6098 10.6886L15.6562 11.6875ZM13.8633 13.4453L13.044 12.8719L13.0375 12.8812L13.0312 12.8906L13.8633 13.4453ZM13.4766 14.2188L12.5187 13.9314L12.5146 13.945L12.5109 13.9588L13.4766 14.2188ZM13.2656 16.7148L12.2659 16.7371L12.2661 16.7487L12.2667 16.7603L13.2656 16.7148ZM13.582 20.0898L12.591 20.2233L12.5913 20.2258L13.582 20.0898ZM14.8828 27.1211L13.9088 27.3476L13.9113 27.3583L13.914 27.3689L14.8828 27.1211ZM15.5508 29.6172L14.5893 29.8919L14.5952 29.9128L14.6021 29.9334L15.5508 29.6172ZM16.5352 29.5469L15.6111 29.1645L15.6054 29.1783L15.6002 29.1922L16.5352 29.5469ZM17.4844 26.9805L18.4309 27.3032L18.4331 27.2967L17.4844 26.9805ZM18.5742 23.5703L19.53 23.8644L19.5315 23.8593L18.5742 23.5703ZM19.5938 20.0547L18.6337 19.7747L18.6299 19.7881L19.5938 20.0547ZM20.4023 17.1719L21.3691 17.4278L21.3708 17.4209L20.4023 17.1719ZM20.7188 15.6602H21.7188V15.6148L21.7146 15.5696L20.7188 15.6602ZM20.4727 14.8516L19.5623 15.2654L19.57 15.2822L19.5782 15.2988L20.4727 14.8516ZM19.8398 13.9727L19.059 14.5974L19.082 14.6261L19.1071 14.6531L19.8398 13.9727ZM18.6445 12.7773L18.6123 11.7779L16.0529 11.8604L17.9909 13.5342L18.6445 12.7773ZM20.5078 12.707L20.4644 11.708L20.4624 11.7081L20.5078 12.707ZM28.5938 12.6719L29.1561 13.4988L31.8427 11.6719H28.5938V12.6719ZM27.082 13.832L26.4177 13.0846L26.407 13.0941L26.3967 13.1038L27.082 13.832ZM26.0977 14.8867L26.8738 15.5173L26.8789 15.511L26.884 15.5045L26.0977 14.8867ZM25.3242 15.9414L24.483 15.4006L24.4487 15.4541L24.4214 15.5115L25.3242 15.9414ZM24.1641 19.1406L25.1128 19.4569L25.1141 19.4528L24.1641 19.1406ZM20.8594 30.2148L21.8218 30.4863L21.8227 30.4831L20.8594 30.2148ZM19.1016 36.4727L19.23 37.4644L19.8861 37.3794L20.0645 36.7423L19.1016 36.4727ZM14.2148 37.1055L13.2626 37.4107L13.5169 38.2042L14.3433 38.0972L14.2148 37.1055ZM12.668 32.1133L11.7042 32.3802L11.7067 32.389L11.7093 32.3979L12.668 32.1133ZM11.543 28.2109L10.5841 28.495L10.5863 28.5021L11.543 28.2109ZM10.5938 24.8008L11.5626 24.5529L11.5588 24.5382L11.5546 24.5236L10.5938 24.8008ZM9.67969 21.1094L8.69641 21.2915L8.69837 21.3021L8.70055 21.3126L9.67969 21.1094ZM9.04688 17.6992L8.05929 17.8563L8.06135 17.8693L8.06374 17.8821L9.04688 17.6992ZM8.13281 13.9375L7.49263 14.7057L7.52125 14.7296L7.55157 14.7512L8.13281 13.9375ZM7.5 13.4805L8.0547 12.6484L8.04585 12.6425L8.03688 12.6368L7.5 13.4805ZM6.51562 12.8477L5.96087 13.6798L5.97237 13.6872L6.51562 12.8477ZM4.89844 11.7578L4.85371 12.7568C6.42906 12.8273 7.66521 12.8633 8.55469 12.8633V11.8633V10.8633C7.70979 10.8633 6.50844 10.8289 4.94317 10.7588L4.89844 11.7578ZM8.55469 11.8633V12.8633H9.85547V11.8633V10.8633H8.55469V11.8633ZM9.85547 11.8633V12.8633C10.2494 12.8633 10.7331 12.851 11.3033 12.8273L11.2617 11.8281L11.2201 10.829C10.6653 10.8521 10.2116 10.8633 9.85547 10.8633V11.8633ZM11.2617 11.8281L11.3117 12.8269C11.7574 12.8046 12.3368 12.793 13.0547 12.793V11.793V10.793C12.3194 10.793 11.7036 10.8048 11.2118 10.8294L11.2617 11.8281ZM13.0547 11.793L13.0869 12.7924C13.8196 12.7688 14.6918 12.7334 15.7027 12.6864L15.6562 11.6875L15.6098 10.6886C14.6051 10.7353 13.7429 10.7702 13.0224 10.7935L13.0547 11.793ZM15.6562 11.6875L15.0828 10.8683C14.5758 11.2232 14.1407 11.5855 13.7964 11.9584L14.5312 12.6367L15.2661 13.315C15.4843 13.0785 15.7992 12.8081 16.2297 12.5067L15.6562 11.6875ZM14.5312 12.6367L13.7964 11.9584C13.497 12.2829 13.2425 12.5884 13.044 12.8719L13.8633 13.4453L14.6825 14.0188C14.8122 13.8335 15.003 13.5999 15.2661 13.315L14.5312 12.6367ZM13.8633 13.4453L13.0312 12.8906C12.8081 13.2253 12.626 13.5738 12.5187 13.9314L13.4766 14.2188L14.4344 14.5061C14.4677 14.395 14.5434 14.2278 14.6953 14L13.8633 13.4453ZM13.4766 14.2188L12.5109 13.9588C12.3111 14.7011 12.2415 15.6418 12.2659 16.7371L13.2656 16.7148L14.2654 16.6926C14.2428 15.6785 14.3139 14.9551 14.4422 14.4787L13.4766 14.2188ZM13.2656 16.7148L12.2667 16.7603C12.3151 17.8259 12.4237 18.9806 12.591 20.2233L13.582 20.0898L14.5731 19.9564C14.4122 18.7616 14.3099 17.6663 14.2646 16.6694L13.2656 16.7148ZM13.582 20.0898L12.5913 20.2258C12.7578 21.4384 12.9597 22.6737 13.197 23.9315L14.1797 23.7461L15.1623 23.5607C14.9309 22.3341 14.7344 21.1319 14.5727 19.9539L13.582 20.0898ZM14.1797 23.7461L13.197 23.9315C13.4335 25.1846 13.6707 26.3236 13.9088 27.3476L14.8828 27.1211L15.8568 26.8946C15.6262 25.903 15.3947 24.792 15.1623 23.5607L14.1797 23.7461ZM14.8828 27.1211L13.914 27.3689C14.1731 28.3816 14.3983 29.2234 14.5893 29.8919L15.5508 29.6172L16.5123 29.3425C16.3283 28.6985 16.1082 27.8762 15.8516 26.8733L14.8828 27.1211ZM15.5508 29.6172L14.6021 29.9334C14.7113 30.2611 14.818 30.5465 14.9222 30.7629C14.9718 30.8659 15.0422 30.999 15.1372 31.121C15.1845 31.1819 15.2643 31.2746 15.3804 31.3594C15.4939 31.4422 15.7104 31.5664 16.0078 31.5664V30.5664V29.5664C16.2818 29.5664 16.473 29.6807 16.5594 29.7438C16.6484 29.8088 16.6993 29.8718 16.7159 29.8931C16.7493 29.9361 16.7508 29.9505 16.7242 29.8953C16.6761 29.7953 16.6012 29.6061 16.4995 29.301L15.5508 29.6172ZM16.0078 30.5664V31.5664C16.3202 31.5664 16.5413 31.429 16.6435 31.3529C16.754 31.2708 16.8311 31.1819 16.877 31.1241C16.9699 31.0069 17.0434 30.8769 17.0982 30.7709C17.2129 30.5492 17.3374 30.2514 17.4702 29.9015L16.5352 29.5469L15.6002 29.1922C15.4751 29.522 15.3828 29.734 15.3217 29.8521C15.2886 29.9161 15.2844 29.9135 15.31 29.8813C15.3222 29.8659 15.3682 29.8089 15.4501 29.748C15.5238 29.6932 15.7189 29.5664 16.0078 29.5664V30.5664ZM16.5352 29.5469L17.4592 29.9292C17.7514 29.223 18.0754 28.3459 18.4309 27.3031L17.4844 26.9805L16.5379 26.6578C16.1902 27.6775 15.8814 28.5114 15.6111 29.1645L16.5352 29.5469ZM17.4844 26.9805L18.4331 27.2967C18.7874 26.2337 19.153 25.0895 19.53 23.8644L18.5742 23.5703L17.6184 23.2762C17.2454 24.4886 16.8845 25.6179 16.5357 26.6642L17.4844 26.9805ZM18.5742 23.5703L19.5315 23.8593C19.9085 22.6107 20.2505 21.4313 20.5576 20.3213L19.5938 20.0547L18.6299 19.7881C18.3276 20.8812 17.9899 22.0456 17.6169 23.2813L18.5742 23.5703ZM19.5938 20.0547L20.5538 20.3347C20.8833 19.2047 21.1553 18.2353 21.369 17.4278L20.4023 17.1719L19.4356 16.916C19.2275 17.7022 18.9604 18.6547 18.6337 19.7747L19.5938 20.0547ZM20.4023 17.1719L21.3708 17.4209C21.478 17.0041 21.5613 16.6567 21.6184 16.3836C21.669 16.1422 21.7188 15.8723 21.7188 15.6602H20.7188H19.7188C19.7188 15.6355 19.7158 15.7113 19.6609 15.9738C19.6125 16.2047 19.5376 16.5193 19.4339 16.9228L20.4023 17.1719ZM20.7188 15.6602L21.7146 15.5696C21.6778 15.1641 21.5518 14.7739 21.3671 14.4043L20.4727 14.8516L19.5782 15.2988C19.6747 15.4918 19.7128 15.6406 19.7229 15.7507L20.7188 15.6602ZM20.4727 14.8516L21.383 14.4378C21.2032 14.0423 20.9131 13.6589 20.5726 13.2922L19.8398 13.9727L19.1071 14.6531C19.3759 14.9427 19.5077 15.1452 19.5623 15.2654L20.4727 14.8516ZM19.8398 13.9727L20.6207 13.348C20.2871 12.9309 19.8391 12.4877 19.2982 12.0205L18.6445 12.7773L17.9909 13.5342C18.4812 13.9576 18.8301 14.3113 19.059 14.5974L19.8398 13.9727ZM18.6445 12.7773L18.6768 13.7768C19.4061 13.7533 20.0318 13.7297 20.5532 13.706L20.5078 12.707L20.4624 11.7081C19.9525 11.7312 19.3361 11.7545 18.6123 11.7779L18.6445 12.7773ZM20.5078 12.707L20.5512 13.7061C21.0815 13.683 21.5231 13.6719 21.8789 13.6719V12.6719V11.6719C21.4847 11.6719 21.0122 11.6842 20.4644 11.708L20.5078 12.707ZM21.8789 12.6719V13.6719H22.9688V12.6719V11.6719H21.8789V12.6719ZM22.9688 12.6719V13.6719H28.5938V12.6719V11.6719H22.9688V12.6719ZM28.5938 12.6719L28.0314 11.8449C27.4184 12.2618 26.8787 12.6748 26.4177 13.0846L27.082 13.832L27.7464 14.5794C28.1291 14.2393 28.5973 13.8788 29.1561 13.4988L28.5938 12.6719ZM27.082 13.832L26.3967 13.1038C25.9724 13.5032 25.6078 13.8916 25.3113 14.2689L26.0977 14.8867L26.884 15.5045C27.1032 15.2256 27.3948 14.9109 27.7674 14.5602L27.082 13.832ZM26.0977 14.8867L25.3215 14.2561C24.9988 14.6534 24.718 15.0351 24.483 15.4006L25.3242 15.9414L26.1654 16.4822C26.3523 16.1915 26.5872 15.8701 26.8738 15.5173L26.0977 14.8867ZM25.3242 15.9414L24.4214 15.5115C24.1547 16.0714 23.7489 17.2005 23.214 18.8285L24.1641 19.1406L25.1141 19.4528C25.6573 17.7995 26.025 16.7958 26.2271 16.3713L25.3242 15.9414ZM24.1641 19.1406L23.2154 18.8244C22.9771 19.5393 22.7046 20.4042 22.3983 21.4176L23.3555 21.707L24.3127 21.9964C24.6157 20.9942 24.8823 20.1482 25.1127 19.4569L24.1641 19.1406ZM23.3555 21.707L22.3983 21.4176C22.0933 22.4263 21.7298 23.6341 21.3078 25.0408L22.2656 25.3281L23.2235 25.6155C23.6452 24.2097 24.0083 23.0033 24.3127 21.9964L23.3555 21.707ZM22.2656 25.3281L21.3078 25.0408C20.8835 26.455 20.4129 28.0905 19.896 29.9466L20.8594 30.2148L21.8227 30.4831C22.3371 28.6361 22.804 27.0138 23.2235 25.6155L22.2656 25.3281ZM20.8594 30.2148L19.8969 29.9434C19.3811 31.7723 18.795 33.8588 18.1386 36.203L19.1016 36.4727L20.0645 36.7423C20.7207 34.399 21.3064 32.3137 21.8218 30.4863L20.8594 30.2148ZM19.1016 36.4727L18.9731 35.4809L14.0864 36.1137L14.2148 37.1055L14.3433 38.0972L19.23 37.4644L19.1016 36.4727ZM14.2148 37.1055L15.1671 36.8003C14.5829 34.9775 14.0695 33.3205 13.6266 31.8287L12.668 32.1133L11.7093 32.3979C12.1571 33.9061 12.6749 35.5772 13.2626 37.4107L14.2148 37.1055ZM12.668 32.1133L13.6317 31.8464C13.2084 30.3178 12.831 29.0084 12.4996 27.9198L11.543 28.2109L10.5863 28.5021C10.9112 29.5697 11.2838 30.8619 11.7042 32.3802L12.668 32.1133ZM11.543 28.2109L12.5018 27.9268C12.1294 26.6702 11.8166 25.5459 11.5626 24.5529L10.5938 24.8008L9.62495 25.0486C9.88656 26.0713 10.2065 27.2204 10.5842 28.495L11.543 28.2109ZM10.5938 24.8008L11.5546 24.5236C11.2101 23.3293 10.9115 22.1235 10.6588 20.9062L9.67969 21.1094L8.70055 21.3126C8.96353 22.5796 9.27432 23.8348 9.63293 25.0779L10.5938 24.8008ZM9.67969 21.1094L10.663 20.9273C10.4286 19.6615 10.2176 18.5245 10.03 17.5163L9.04688 17.6992L8.06374 17.8821C8.25118 18.8896 8.46207 20.026 8.69641 21.2915L9.67969 21.1094ZM9.04688 17.6992L10.0345 17.5421C9.86905 16.5024 9.71398 15.6305 9.5691 14.9302L8.58984 15.1328L7.61058 15.3354C7.74695 15.9945 7.89658 16.8336 8.05929 17.8563L9.04688 17.6992ZM8.58984 15.1328L9.5691 14.9302C9.49375 14.566 9.40765 14.2377 9.30417 13.9671C9.22069 13.7488 9.05586 13.3679 8.71405 13.1238L8.13281 13.9375L7.55157 14.7512C7.49399 14.7101 7.45627 14.6707 7.43537 14.6464C7.41418 14.6217 7.40349 14.6046 7.40134 14.6011C7.39846 14.5964 7.41184 14.618 7.43607 14.6814C7.48493 14.8092 7.54531 15.02 7.61058 15.3354L8.58984 15.1328ZM8.13281 13.9375L8.773 13.1693C8.59116 13.0177 8.34529 12.8421 8.0547 12.6484L7.5 13.4805L6.9453 14.3125C7.21721 14.4938 7.39321 14.6229 7.49263 14.7057L8.13281 13.9375ZM7.5 13.4805L8.03688 12.6368C7.78202 12.4746 7.45621 12.2652 7.05888 12.0081L6.51562 12.8477L5.97237 13.6872C6.37191 13.9458 6.70236 14.1582 6.96312 14.3241L7.5 13.4805ZM6.51562 12.8477L7.07033 12.0156C6.65161 11.7365 6.11503 11.3749 5.45994 10.9303L4.89844 11.7578L4.33694 12.5853C4.99434 13.0314 5.53589 13.3963 5.96092 13.6797L6.51562 12.8477ZM24.7969 11.9336L24.9383 10.9436L21.118 10.3979L24.1925 12.7303L24.7969 11.9336ZM28.4531 12.3906L28.3363 13.3838L28.3449 13.3848L28.3536 13.3857L28.4531 12.3906ZM29.6484 12.4961L29.7725 11.5038L29.7461 11.5005L29.7197 11.4986L29.6484 12.4961ZM31.0195 12.4258L30.8551 11.4394L30.8482 11.4406L31.0195 12.4258ZM32.8125 12.1445L32.959 13.1337L32.9769 13.1311L32.9946 13.1278L32.8125 12.1445ZM40.4414 12.8125L40.0547 13.7348L40.065 13.739L40.4414 12.8125ZM46.9102 22.1641L45.9107 22.1979L45.9107 22.1981L46.9102 22.1641ZM44.2734 32.1133L43.4865 31.4961L43.4791 31.5058L44.2734 32.1133ZM35.8711 36.0508L35.8336 35.0515L35.8115 35.0523L35.7894 35.0541L35.8711 36.0508ZM31.6523 36.3672L31.5847 35.3694L31.5726 35.3704L31.6523 36.3672ZM29.7891 36.4727L29.7534 35.4733L29.7521 35.4733L29.7891 36.4727ZM27.8906 36.543V37.543H27.9091L27.9276 37.5423L27.8906 36.543ZM24.4453 36.4023L24.0139 35.5002L20.7609 37.056L24.3505 37.3978L24.4453 36.4023ZM25.7461 35.6289L25.1547 34.8225L25.1413 34.8323L25.1283 34.8426L25.7461 35.6289ZM26.5547 34.9609L27.2618 35.668L27.2804 35.6494L27.298 35.6299L26.5547 34.9609ZM27.0117 34.3281L27.9061 34.7753L27.97 34.6476L27.9956 34.507L27.0117 34.3281ZM27.2227 32.8164L28.215 32.9405L28.2165 32.9268L27.2227 32.8164ZM27.9258 25.3281L26.9293 25.2439L26.9291 25.247L27.9258 25.3281ZM28.1367 22.832L29.1332 22.9162L29.1339 22.9076L28.1367 22.832ZM28.2773 19.0352H27.2773V19.0471L27.2776 19.059L28.2773 19.0352ZM28.207 16.7148L29.2036 16.6318L29.2026 16.62L29.2013 16.6083L28.207 16.7148ZM27.9258 15.2734L26.986 15.6152L26.9891 15.6238L26.9924 15.6324L27.9258 15.2734ZM27.3984 14.3594L28.2048 13.768L28.1865 13.743L28.1667 13.7192L27.3984 14.3594ZM26.4141 13.3398L25.687 14.0265L25.7067 14.0472L25.7274 14.0669L26.4141 13.3398ZM32.2148 24.8711L33.2146 24.8486L33.2145 24.8437L32.2148 24.8711ZM32.5312 29.6875L31.5417 29.8318L31.5434 29.8436L31.5454 29.8553L32.5312 29.6875ZM33.1289 32.1484L32.1977 32.5128L32.2026 32.5255L32.2079 32.5381L33.1289 32.1484ZM33.9727 33.2383L33.6137 34.1716L33.787 34.2383H33.9727V33.2383ZM35.4844 32.6758L36.0391 33.5078L36.0508 33.5L36.0624 33.4918L35.4844 32.6758ZM37.1367 30.8828L36.3198 30.3061L36.314 30.3143L36.3084 30.3225L37.1367 30.8828ZM38.6484 27.8945L37.7175 27.5294L37.7143 27.5374L37.7114 27.5454L38.6484 27.8945ZM38.1914 16.4336L37.3486 16.972L37.3557 16.9828L38.1914 16.4336ZM36.5391 14.5352L35.9184 15.3192L35.9286 15.3273L35.9391 15.3352L36.5391 14.5352ZM34.3945 14.1484L34.9314 14.9921L34.9576 14.9754L34.9827 14.9572L34.3945 14.1484ZM33.3047 15.3086L32.5121 14.6989L32.5013 14.7129L32.491 14.7274L33.3047 15.3086ZM32.6719 16.7148L31.7161 16.4208L31.7152 16.4237L32.6719 16.7148ZM32.1445 22.3047L33.1442 22.2773L33.144 22.2714L32.1445 22.3047ZM24.7969 11.9336L24.6555 12.9235C25.4818 13.0416 26.206 13.1366 26.8268 13.2083L26.9414 12.2148L27.056 11.2214C26.4581 11.1524 25.7526 11.06 24.9383 10.9436L24.7969 11.9336ZM26.9414 12.2148L26.8268 13.2083C27.4358 13.2785 27.9389 13.337 28.3363 13.3838L28.4531 12.3906L28.57 11.3975C28.1705 11.3505 27.6658 11.2918 27.056 11.2214L26.9414 12.2148ZM28.4531 12.3906L28.3536 13.3857C28.8281 13.4331 29.2366 13.4692 29.5772 13.4936L29.6484 12.4961L29.7197 11.4986C29.404 11.4761 29.0156 11.4419 28.5526 11.3956L28.4531 12.3906ZM29.6484 12.4961L29.5244 13.4884C30.0309 13.5517 30.5938 13.5148 31.1909 13.411L31.0195 12.4258L30.8482 11.4406C30.3671 11.5242 30.016 11.5343 29.7725 11.5038L29.6484 12.4961ZM31.0195 12.4258L31.1839 13.4122C31.7398 13.3195 32.3315 13.2267 32.959 13.1337L32.8125 12.1445L32.666 11.1553C32.0279 11.2499 31.4242 11.3445 30.8551 11.4394L31.0195 12.4258ZM32.8125 12.1445L32.9946 13.1278C33.5996 13.0158 34.2294 12.9257 34.8841 12.858L34.7812 11.8633L34.6784 10.8686C33.9737 10.9415 33.291 11.0389 32.6304 11.1612L32.8125 12.1445ZM34.7812 11.8633L34.8841 12.858C35.498 12.7945 36.0826 12.7953 36.6396 12.8572L36.75 11.8633L36.8604 10.8694C36.1518 10.7907 35.4238 10.7915 34.6784 10.8686L34.7812 11.8633ZM36.75 11.8633L36.6396 12.8572C37.0148 12.8989 37.5177 12.9852 38.1577 13.1223L38.3672 12.1445L38.5767 11.1667C37.9042 11.0226 37.3289 10.9215 36.8604 10.8694L36.75 11.8633ZM38.3672 12.1445L38.1577 13.1223C38.7439 13.2479 39.3757 13.45 40.0547 13.7347L40.4414 12.8125L40.8281 11.8903C40.0539 11.5656 39.303 11.3224 38.5767 11.1667L38.3672 12.1445ZM40.4414 12.8125L40.065 13.739C40.7487 14.0167 41.4413 14.3836 42.1427 14.8439L42.6914 14.0078L43.2401 13.1718C42.4415 12.6477 41.6341 12.2177 40.8178 11.886L40.4414 12.8125ZM42.6914 14.0078L42.1427 14.8439C42.8004 15.2755 43.4048 15.8253 43.9544 16.5017L44.7305 15.8711L45.5066 15.2405C44.8374 14.4169 44.0824 13.7245 43.2401 13.1718L42.6914 14.0078ZM44.7305 15.8711L43.9544 16.5017C44.4889 17.1596 44.9434 17.956 45.3094 18.9034L46.2422 18.543L47.175 18.1826C46.7441 17.0674 46.1908 16.0826 45.5066 15.2405L44.7305 15.8711ZM46.2422 18.543L45.3094 18.9034C45.6588 19.8078 45.8667 20.9 45.9107 22.1979L46.9102 22.1641L47.9096 22.1302C47.8598 20.6625 47.6224 19.3406 47.175 18.1826L46.2422 18.543ZM46.9102 22.1641L45.9107 22.1981C45.9783 24.1804 45.7971 25.9561 45.3808 27.5339L46.3477 27.7891L47.3146 28.0442C47.7888 26.2471 47.9826 24.2727 47.9096 22.13L46.9102 22.1641ZM46.3477 27.7891L45.3808 27.5339C44.965 29.1092 44.3285 30.4228 43.4866 31.4961L44.2734 32.1133L45.0603 32.7304C46.0934 31.4132 46.8396 29.8439 47.3146 28.0442L46.3477 27.7891ZM44.2734 32.1133L43.4791 31.5058C42.6638 32.5719 41.6286 33.4112 40.3578 34.0254L40.793 34.9258L41.2281 35.8261C42.7699 35.081 44.0549 34.0452 45.0678 32.7207L44.2734 32.1133ZM40.793 34.9258L40.3578 34.0254C39.0983 34.6342 37.5979 34.9853 35.8336 35.0515L35.8711 36.0508L35.9086 37.0501C37.8943 36.9756 39.6752 36.5767 41.2281 35.8261L40.793 34.9258ZM35.8711 36.0508L35.7894 35.0541C34.3642 35.1709 32.9627 35.2761 31.5847 35.3695L31.6523 36.3672L31.72 37.3649C33.1076 37.2708 34.5186 37.165 35.9528 37.0474L35.8711 36.0508ZM31.6523 36.3672L31.5726 35.3704C31.0029 35.4159 30.3966 35.4503 29.7534 35.4733L29.7891 36.4727L29.8248 37.472C30.494 37.4481 31.1299 37.4122 31.7321 37.364L31.6523 36.3672ZM29.7891 36.4727L29.7521 35.4733C29.7508 35.4734 29.7496 35.4734 29.7483 35.4735C29.7471 35.4735 29.7459 35.4736 29.7446 35.4736C29.7434 35.4737 29.7422 35.4737 29.7409 35.4738C29.7397 35.4738 29.7385 35.4738 29.7372 35.4739C29.736 35.4739 29.7347 35.474 29.7335 35.474C29.7323 35.4741 29.731 35.4741 29.7298 35.4742C29.7286 35.4742 29.7273 35.4743 29.7261 35.4743C29.7249 35.4743 29.7236 35.4744 29.7224 35.4744C29.7212 35.4745 29.7199 35.4745 29.7187 35.4746C29.7174 35.4746 29.7162 35.4747 29.715 35.4747C29.7137 35.4748 29.7125 35.4748 29.7113 35.4749C29.71 35.4749 29.7088 35.4749 29.7076 35.475C29.7063 35.475 29.7051 35.4751 29.7038 35.4751C29.7026 35.4752 29.7014 35.4752 29.7001 35.4753C29.6989 35.4753 29.6977 35.4754 29.6964 35.4754C29.6952 35.4754 29.694 35.4755 29.6927 35.4755C29.6915 35.4756 29.6903 35.4756 29.689 35.4757C29.6878 35.4757 29.6865 35.4758 29.6853 35.4758C29.6841 35.4759 29.6828 35.4759 29.6816 35.476C29.6804 35.476 29.6791 35.476 29.6779 35.4761C29.6767 35.4761 29.6754 35.4762 29.6742 35.4762C29.6729 35.4763 29.6717 35.4763 29.6705 35.4764C29.6692 35.4764 29.668 35.4765 29.6668 35.4765C29.6655 35.4765 29.6643 35.4766 29.6631 35.4766C29.6618 35.4767 29.6606 35.4767 29.6594 35.4768C29.6581 35.4768 29.6569 35.4769 29.6556 35.4769C29.6544 35.477 29.6532 35.477 29.6519 35.477C29.6507 35.4771 29.6495 35.4771 29.6482 35.4772C29.647 35.4772 29.6458 35.4773 29.6445 35.4773C29.6433 35.4774 29.6421 35.4774 29.6408 35.4775C29.6396 35.4775 29.6383 35.4776 29.6371 35.4776C29.6359 35.4776 29.6346 35.4777 29.6334 35.4777C29.6322 35.4778 29.6309 35.4778 29.6297 35.4779C29.6285 35.4779 29.6272 35.478 29.626 35.478C29.6247 35.4781 29.6235 35.4781 29.6223 35.4781C29.621 35.4782 29.6198 35.4782 29.6186 35.4783C29.6173 35.4783 29.6161 35.4784 29.6149 35.4784C29.6136 35.4785 29.6124 35.4785 29.6112 35.4786C29.6099 35.4786 29.6087 35.4787 29.6074 35.4787C29.6062 35.4787 29.605 35.4788 29.6037 35.4788C29.6025 35.4789 29.6013 35.4789 29.6 35.479C29.5988 35.479 29.5976 35.4791 29.5963 35.4791C29.5951 35.4792 29.5938 35.4792 29.5926 35.4792C29.5914 35.4793 29.5901 35.4793 29.5889 35.4794C29.5877 35.4794 29.5864 35.4795 29.5852 35.4795C29.584 35.4796 29.5827 35.4796 29.5815 35.4797C29.5803 35.4797 29.579 35.4798 29.5778 35.4798C29.5765 35.4798 29.5753 35.4799 29.5741 35.4799C29.5728 35.48 29.5716 35.48 29.5704 35.4801C29.5691 35.4801 29.5679 35.4802 29.5667 35.4802C29.5654 35.4803 29.5642 35.4803 29.5629 35.4803C29.5617 35.4804 29.5605 35.4804 29.5592 35.4805C29.558 35.4805 29.5568 35.4806 29.5555 35.4806C29.5543 35.4807 29.5531 35.4807 29.5518 35.4808C29.5506 35.4808 29.5494 35.4808 29.5481 35.4809C29.5469 35.4809 29.5456 35.481 29.5444 35.481C29.5432 35.4811 29.5419 35.4811 29.5407 35.4812C29.5395 35.4812 29.5382 35.4813 29.537 35.4813C29.5358 35.4814 29.5345 35.4814 29.5333 35.4814C29.532 35.4815 29.5308 35.4815 29.5296 35.4816C29.5283 35.4816 29.5271 35.4817 29.5259 35.4817C29.5246 35.4818 29.5234 35.4818 29.5222 35.4819C29.5209 35.4819 29.5197 35.4819 29.5185 35.482C29.5172 35.482 29.516 35.4821 29.5147 35.4821C29.5135 35.4822 29.5123 35.4822 29.511 35.4823C29.5098 35.4823 29.5086 35.4824 29.5073 35.4824C29.5061 35.4825 29.5049 35.4825 29.5036 35.4825C29.5024 35.4826 29.5012 35.4826 29.4999 35.4827C29.4987 35.4827 29.4974 35.4828 29.4962 35.4828C29.495 35.4829 29.4937 35.4829 29.4925 35.483C29.4913 35.483 29.49 35.483 29.4888 35.4831C29.4876 35.4831 29.4863 35.4832 29.4851 35.4832C29.4838 35.4833 29.4826 35.4833 29.4814 35.4834C29.4801 35.4834 29.4789 35.4835 29.4777 35.4835C29.4764 35.4835 29.4752 35.4836 29.474 35.4836C29.4727 35.4837 29.4715 35.4837 29.4703 35.4838C29.469 35.4838 29.4678 35.4839 29.4665 35.4839C29.4653 35.484 29.4641 35.484 29.4628 35.4841C29.4616 35.4841 29.4604 35.4841 29.4591 35.4842C29.4579 35.4842 29.4567 35.4843 29.4554 35.4843C29.4542 35.4844 29.4529 35.4844 29.4517 35.4845C29.4505 35.4845 29.4492 35.4846 29.448 35.4846C29.4468 35.4846 29.4455 35.4847 29.4443 35.4847C29.4431 35.4848 29.4418 35.4848 29.4406 35.4849C29.4394 35.4849 29.4381 35.485 29.4369 35.485C29.4356 35.4851 29.4344 35.4851 29.4332 35.4852C29.4319 35.4852 29.4307 35.4852 29.4295 35.4853C29.4282 35.4853 29.427 35.4854 29.4258 35.4854C29.4245 35.4855 29.4233 35.4855 29.422 35.4856C29.4208 35.4856 29.4196 35.4857 29.4183 35.4857C29.4171 35.4857 29.4159 35.4858 29.4146 35.4858C29.4134 35.4859 29.4122 35.4859 29.4109 35.486C29.4097 35.486 29.4085 35.4861 29.4072 35.4861C29.406 35.4862 29.4047 35.4862 29.4035 35.4863C29.4023 35.4863 29.401 35.4863 29.3998 35.4864C29.3986 35.4864 29.3973 35.4865 29.3961 35.4865C29.3949 35.4866 29.3936 35.4866 29.3924 35.4867C29.3911 35.4867 29.3899 35.4868 29.3887 35.4868C29.3874 35.4868 29.3862 35.4869 29.385 35.4869C29.3837 35.487 29.3825 35.487 29.3813 35.4871C29.38 35.4871 29.3788 35.4872 29.3776 35.4872C29.3763 35.4873 29.3751 35.4873 29.3738 35.4873C29.3726 35.4874 29.3714 35.4874 29.3701 35.4875C29.3689 35.4875 29.3677 35.4876 29.3664 35.4876C29.3652 35.4877 29.364 35.4877 29.3627 35.4878C29.3615 35.4878 29.3603 35.4879 29.359 35.4879C29.3578 35.4879 29.3565 35.488 29.3553 35.488C29.3541 35.4881 29.3528 35.4881 29.3516 35.4882C29.3504 35.4882 29.3491 35.4883 29.3479 35.4883C29.3467 35.4884 29.3454 35.4884 29.3442 35.4884C29.3429 35.4885 29.3417 35.4885 29.3405 35.4886C29.3392 35.4886 29.338 35.4887 29.3368 35.4887C29.3355 35.4888 29.3343 35.4888 29.3331 35.4889C29.3318 35.4889 29.3306 35.489 29.3294 35.489C29.3281 35.489 29.3269 35.4891 29.3256 35.4891C29.3244 35.4892 29.3232 35.4892 29.3219 35.4893C29.3207 35.4893 29.3195 35.4894 29.3182 35.4894C29.317 35.4895 29.3158 35.4895 29.3145 35.4895C29.3133 35.4896 29.312 35.4896 29.3108 35.4897C29.3096 35.4897 29.3083 35.4898 29.3071 35.4898C29.3059 35.4899 29.3046 35.4899 29.3034 35.49C29.3022 35.49 29.3009 35.49 29.2997 35.4901C29.2985 35.4901 29.2972 35.4902 29.296 35.4902C29.2947 35.4903 29.2935 35.4903 29.2923 35.4904C29.291 35.4904 29.2898 35.4905 29.2886 35.4905C29.2873 35.4906 29.2861 35.4906 29.2849 35.4906C29.2836 35.4907 29.2824 35.4907 29.2811 35.4908C29.2799 35.4908 29.2787 35.4909 29.2774 35.4909C29.2762 35.491 29.275 35.491 29.2737 35.4911C29.2725 35.4911 29.2713 35.4911 29.27 35.4912C29.2688 35.4912 29.2676 35.4913 29.2663 35.4913C29.2651 35.4914 29.2638 35.4914 29.2626 35.4915C29.2614 35.4915 29.2601 35.4916 29.2589 35.4916C29.2577 35.4917 29.2564 35.4917 29.2552 35.4917C29.254 35.4918 29.2527 35.4918 29.2515 35.4919C29.2503 35.4919 29.249 35.492 29.2478 35.492C29.2465 35.4921 29.2453 35.4921 29.2441 35.4922C29.2428 35.4922 29.2416 35.4922 29.2404 35.4923C29.2391 35.4923 29.2379 35.4924 29.2367 35.4924C29.2354 35.4925 29.2342 35.4925 29.2329 35.4926C29.2317 35.4926 29.2305 35.4927 29.2292 35.4927C29.228 35.4928 29.2268 35.4928 29.2255 35.4928C29.2243 35.4929 29.2231 35.4929 29.2218 35.493C29.2206 35.493 29.2194 35.4931 29.2181 35.4931C29.2169 35.4932 29.2156 35.4932 29.2144 35.4933C29.2132 35.4933 29.2119 35.4933 29.2107 35.4934C29.2095 35.4934 29.2082 35.4935 29.207 35.4935C29.2058 35.4936 29.2045 35.4936 29.2033 35.4937C29.202 35.4937 29.2008 35.4938 29.1996 35.4938C29.1983 35.4938 29.1971 35.4939 29.1959 35.4939C29.1946 35.494 29.1934 35.494 29.1922 35.4941C29.1909 35.4941 29.1897 35.4942 29.1885 35.4942C29.1872 35.4943 29.186 35.4943 29.1847 35.4944C29.1835 35.4944 29.1823 35.4944 29.181 35.4945C29.1798 35.4945 29.1786 35.4946 29.1773 35.4946C29.1761 35.4947 29.1749 35.4947 29.1736 35.4948C29.1724 35.4948 29.1711 35.4949 29.1699 35.4949C29.1687 35.4949 29.1674 35.495 29.1662 35.495C29.165 35.4951 29.1637 35.4951 29.1625 35.4952C29.1613 35.4952 29.16 35.4953 29.1588 35.4953C29.1576 35.4954 29.1563 35.4954 29.1551 35.4955C29.1538 35.4955 29.1526 35.4955 29.1514 35.4956C29.1501 35.4956 29.1489 35.4957 29.1477 35.4957C29.1464 35.4958 29.1452 35.4958 29.144 35.4959C29.1427 35.4959 29.1415 35.496 29.1402 35.496C29.139 35.496 29.1378 35.4961 29.1365 35.4961C29.1353 35.4962 29.1341 35.4962 29.1328 35.4963C29.1316 35.4963 29.1304 35.4964 29.1291 35.4964C29.1279 35.4965 29.1267 35.4965 29.1254 35.4966C29.1242 35.4966 29.1229 35.4966 29.1217 35.4967C29.1205 35.4967 29.1192 35.4968 29.118 35.4968C29.1168 35.4969 29.1155 35.4969 29.1143 35.497C29.1131 35.497 29.1118 35.4971 29.1106 35.4971C29.1094 35.4971 29.1081 35.4972 29.1069 35.4972C29.1056 35.4973 29.1044 35.4973 29.1032 35.4974C29.1019 35.4974 29.1007 35.4975 29.0995 35.4975C29.0982 35.4976 29.097 35.4976 29.0958 35.4976C29.0945 35.4977 29.0933 35.4977 29.092 35.4978C29.0908 35.4978 29.0896 35.4979 29.0883 35.4979C29.0871 35.498 29.0859 35.498 29.0846 35.4981C29.0834 35.4981 29.0822 35.4982 29.0809 35.4982C29.0797 35.4982 29.0785 35.4983 29.0772 35.4983C29.076 35.4984 29.0747 35.4984 29.0735 35.4985C29.0723 35.4985 29.071 35.4986 29.0698 35.4986C29.0686 35.4987 29.0673 35.4987 29.0661 35.4987C29.0649 35.4988 29.0636 35.4988 29.0624 35.4989C29.0611 35.4989 29.0599 35.499 29.0587 35.499C29.0574 35.4991 29.0562 35.4991 29.055 35.4992C29.0537 35.4992 29.0525 35.4993 29.0513 35.4993C29.05 35.4993 29.0488 35.4994 29.0476 35.4994C29.0463 35.4995 29.0451 35.4995 29.0438 35.4996C29.0426 35.4996 29.0414 35.4997 29.0401 35.4997C29.0389 35.4998 29.0377 35.4998 29.0364 35.4998C29.0352 35.4999 29.034 35.4999 29.0327 35.5C29.0315 35.5 29.0302 35.5001 29.029 35.5001C29.0278 35.5002 29.0265 35.5002 29.0253 35.5003C29.0241 35.5003 29.0228 35.5003 29.0216 35.5004C29.0204 35.5004 29.0191 35.5005 29.0179 35.5005C29.0167 35.5006 29.0154 35.5006 29.0142 35.5007C29.0129 35.5007 29.0117 35.5008 29.0105 35.5008C29.0092 35.5009 29.008 35.5009 29.0068 35.5009C29.0055 35.501 29.0043 35.501 29.0031 35.5011C29.0018 35.5011 29.0006 35.5012 28.9994 35.5012C28.9981 35.5013 28.9969 35.5013 28.9956 35.5014C28.9944 35.5014 28.9932 35.5014 28.9919 35.5015C28.9907 35.5015 28.9895 35.5016 28.9882 35.5016C28.987 35.5017 28.9858 35.5017 28.9845 35.5018C28.9833 35.5018 28.982 35.5019 28.9808 35.5019C28.9796 35.502 28.9783 35.502 28.9771 35.502C28.9759 35.5021 28.9746 35.5021 28.9734 35.5022C28.9722 35.5022 28.9709 35.5023 28.9697 35.5023C28.9685 35.5024 28.9672 35.5024 28.966 35.5025C28.9647 35.5025 28.9635 35.5025 28.9623 35.5026C28.961 35.5026 28.9598 35.5027 28.9586 35.5027C28.9573 35.5028 28.9561 35.5028 28.9549 35.5029C28.9536 35.5029 28.9524 35.503 28.9511 35.503C28.9499 35.5031 28.9487 35.5031 28.9474 35.5031C28.9462 35.5032 28.945 35.5032 28.9437 35.5033C28.9425 35.5033 28.9413 35.5034 28.94 35.5034C28.9388 35.5035 28.9376 35.5035 28.9363 35.5036C28.9351 35.5036 28.9338 35.5036 28.9326 35.5037C28.9314 35.5037 28.9301 35.5038 28.9289 35.5038C28.9277 35.5039 28.9264 35.5039 28.9252 35.504C28.924 35.504 28.9227 35.5041 28.9215 35.5041C28.9202 35.5041 28.919 35.5042 28.9178 35.5042C28.9165 35.5043 28.9153 35.5043 28.9141 35.5044C28.9128 35.5044 28.9116 35.5045 28.9104 35.5045C28.9091 35.5046 28.9079 35.5046 28.9067 35.5047C28.9054 35.5047 28.9042 35.5047 28.9029 35.5048C28.9017 35.5048 28.9005 35.5049 28.8992 35.5049C28.898 35.505 28.8968 35.505 28.8955 35.5051C28.8943 35.5051 28.8931 35.5052 28.8918 35.5052C28.8906 35.5052 28.8893 35.5053 28.8881 35.5053C28.8869 35.5054 28.8856 35.5054 28.8844 35.5055C28.8832 35.5055 28.8819 35.5056 28.8807 35.5056C28.8795 35.5057 28.8782 35.5057 28.877 35.5058C28.8758 35.5058 28.8745 35.5058 28.8733 35.5059C28.872 35.5059 28.8708 35.506 28.8696 35.506C28.8683 35.5061 28.8671 35.5061 28.8659 35.5062C28.8646 35.5062 28.8634 35.5063 28.8622 35.5063C28.8609 35.5063 28.8597 35.5064 28.8585 35.5064C28.8572 35.5065 28.856 35.5065 28.8547 35.5066C28.8535 35.5066 28.8523 35.5067 28.851 35.5067C28.8498 35.5068 28.8486 35.5068 28.8473 35.5068C28.8461 35.5069 28.8449 35.5069 28.8436 35.507C28.8424 35.507 28.8411 35.5071 28.8399 35.5071C28.8387 35.5072 28.8374 35.5072 28.8362 35.5073C28.835 35.5073 28.8337 35.5074 28.8325 35.5074C28.8313 35.5074 28.83 35.5075 28.8288 35.5075C28.8276 35.5076 28.8263 35.5076 28.8251 35.5077C28.8238 35.5077 28.8226 35.5078 28.8214 35.5078C28.8201 35.5079 28.8189 35.5079 28.8177 35.5079C28.8164 35.508 28.8152 35.508 28.814 35.5081C28.8127 35.5081 28.8115 35.5082 28.8102 35.5082C28.809 35.5083 28.8078 35.5083 28.8065 35.5084C28.8053 35.5084 28.8041 35.5085 28.8028 35.5085C28.8016 35.5085 28.8004 35.5086 28.7991 35.5086C28.7979 35.5087 28.7967 35.5087 28.7954 35.5088C28.7942 35.5088 28.7929 35.5089 28.7917 35.5089C28.7905 35.509 28.7892 35.509 28.788 35.509C28.7868 35.5091 28.7855 35.5091 28.7843 35.5092C28.7831 35.5092 28.7818 35.5093 28.7806 35.5093C28.7793 35.5094 28.7781 35.5094 28.7769 35.5095C28.7756 35.5095 28.7744 35.5096 28.7732 35.5096C28.7719 35.5096 28.7707 35.5097 28.7695 35.5097C28.7682 35.5098 28.767 35.5098 28.7658 35.5099C28.7645 35.5099 28.7633 35.51 28.762 35.51C28.7608 35.5101 28.7596 35.5101 28.7583 35.5101C28.7571 35.5102 28.7559 35.5102 28.7546 35.5103C28.7534 35.5103 28.7522 35.5104 28.7509 35.5104C28.7497 35.5105 28.7484 35.5105 28.7472 35.5106C28.746 35.5106 28.7447 35.5106 28.7435 35.5107C28.7423 35.5107 28.741 35.5108 28.7398 35.5108C28.7386 35.5109 28.7373 35.5109 28.7361 35.511C28.7349 35.511 28.7336 35.5111 28.7324 35.5111C28.7311 35.5112 28.7299 35.5112 28.7287 35.5112C28.7274 35.5113 28.7262 35.5113 28.725 35.5114C28.7237 35.5114 28.7225 35.5115 28.7213 35.5115C28.72 35.5116 28.7188 35.5116 28.7176 35.5117C28.7163 35.5117 28.7151 35.5117 28.7138 35.5118C28.7126 35.5118 28.7114 35.5119 28.7101 35.5119C28.7089 35.512 28.7077 35.512 28.7064 35.5121C28.7052 35.5121 28.704 35.5122 28.7027 35.5122C28.7015 35.5123 28.7002 35.5123 28.699 35.5123C28.6978 35.5124 28.6965 35.5124 28.6953 35.5125C28.6941 35.5125 28.6928 35.5126 28.6916 35.5126C28.6904 35.5127 28.6891 35.5127 28.6879 35.5128C28.6867 35.5128 28.6854 35.5128 28.6842 35.5129C28.6829 35.5129 28.6817 35.513 28.6805 35.513C28.6792 35.5131 28.678 35.5131 28.6768 35.5132C28.6755 35.5132 28.6743 35.5133 28.6731 35.5133C28.6718 35.5133 28.6706 35.5134 28.6693 35.5134C28.6681 35.5135 28.6669 35.5135 28.6656 35.5136C28.6644 35.5136 28.6632 35.5137 28.6619 35.5137C28.6607 35.5138 28.6595 35.5138 28.6582 35.5139C28.657 35.5139 28.6558 35.5139 28.6545 35.514C28.6533 35.514 28.652 35.5141 28.6508 35.5141C28.6496 35.5142 28.6483 35.5142 28.6471 35.5143C28.6459 35.5143 28.6446 35.5144 28.6434 35.5144C28.6422 35.5144 28.6409 35.5145 28.6397 35.5145C28.6384 35.5146 28.6372 35.5146 28.636 35.5147C28.6347 35.5147 28.6335 35.5148 28.6323 35.5148C28.631 35.5149 28.6298 35.5149 28.6286 35.515C28.6273 35.515 28.6261 35.515 28.6249 35.5151C28.6236 35.5151 28.6224 35.5152 28.6211 35.5152C28.6199 35.5153 28.6187 35.5153 28.6174 35.5154C28.6162 35.5154 28.615 35.5155 28.6137 35.5155C28.6125 35.5155 28.6113 35.5156 28.61 35.5156C28.6088 35.5157 28.6076 35.5157 28.6063 35.5158C28.6051 35.5158 28.6038 35.5159 28.6026 35.5159C28.6014 35.516 28.6001 35.516 28.5989 35.5161C28.5977 35.5161 28.5964 35.5161 28.5952 35.5162C28.594 35.5162 28.5927 35.5163 28.5915 35.5163C28.5902 35.5164 28.589 35.5164 28.5878 35.5165C28.5865 35.5165 28.5853 35.5166 28.5841 35.5166C28.5828 35.5166 28.5816 35.5167 28.5804 35.5167C28.5791 35.5168 28.5779 35.5168 28.5767 35.5169C28.5754 35.5169 28.5742 35.517 28.5729 35.517C28.5717 35.5171 28.5705 35.5171 28.5692 35.5171C28.568 35.5172 28.5668 35.5172 28.5655 35.5173C28.5643 35.5173 28.5631 35.5174 28.5618 35.5174C28.5606 35.5175 28.5593 35.5175 28.5581 35.5176C28.5569 35.5176 28.5556 35.5177 28.5544 35.5177C28.5532 35.5177 28.5519 35.5178 28.5507 35.5178C28.5495 35.5179 28.5482 35.5179 28.547 35.518C28.5458 35.518 28.5445 35.5181 28.5433 35.5181C28.542 35.5182 28.5408 35.5182 28.5396 35.5182C28.5383 35.5183 28.5371 35.5183 28.5359 35.5184C28.5346 35.5184 28.5334 35.5185 28.5322 35.5185C28.5309 35.5186 28.5297 35.5186 28.5284 35.5187C28.5272 35.5187 28.526 35.5188 28.5247 35.5188C28.5235 35.5188 28.5223 35.5189 28.521 35.5189C28.5198 35.519 28.5186 35.519 28.5173 35.5191C28.5161 35.5191 28.5149 35.5192 28.5136 35.5192C28.5124 35.5193 28.5111 35.5193 28.5099 35.5193C28.5087 35.5194 28.5074 35.5194 28.5062 35.5195C28.505 35.5195 28.5037 35.5196 28.5025 35.5196C28.5013 35.5197 28.5 35.5197 28.4988 35.5198C28.4975 35.5198 28.4963 35.5199 28.4951 35.5199C28.4938 35.5199 28.4926 35.52 28.4914 35.52C28.4901 35.5201 28.4889 35.5201 28.4877 35.5202C28.4864 35.5202 28.4852 35.5203 28.484 35.5203C28.4827 35.5204 28.4815 35.5204 28.4802 35.5204C28.479 35.5205 28.4778 35.5205 28.4765 35.5206C28.4753 35.5206 28.4741 35.5207 28.4728 35.5207C28.4716 35.5208 28.4704 35.5208 28.4691 35.5209C28.4679 35.5209 28.4667 35.5209 28.4654 35.521C28.4642 35.521 28.4629 35.5211 28.4617 35.5211C28.4605 35.5212 28.4592 35.5212 28.458 35.5213C28.4568 35.5213 28.4555 35.5214 28.4543 35.5214C28.4531 35.5215 28.4518 35.5215 28.4506 35.5215C28.4493 35.5216 28.4481 35.5216 28.4469 35.5217C28.4456 35.5217 28.4444 35.5218 28.4432 35.5218C28.4419 35.5219 28.4407 35.5219 28.4395 35.522C28.4382 35.522 28.437 35.522 28.4358 35.5221C28.4345 35.5221 28.4333 35.5222 28.432 35.5222C28.4308 35.5223 28.4296 35.5223 28.4283 35.5224C28.4271 35.5224 28.4259 35.5225 28.4246 35.5225C28.4234 35.5226 28.4222 35.5226 28.4209 35.5226C28.4197 35.5227 28.4184 35.5227 28.4172 35.5228C28.416 35.5228 28.4147 35.5229 28.4135 35.5229C28.4123 35.523 28.411 35.523 28.4098 35.5231C28.4086 35.5231 28.4073 35.5231 28.4061 35.5232C28.4049 35.5232 28.4036 35.5233 28.4024 35.5233C28.4011 35.5234 28.3999 35.5234 28.3987 35.5235C28.3974 35.5235 28.3962 35.5236 28.395 35.5236C28.3937 35.5236 28.3925 35.5237 28.3913 35.5237C28.39 35.5238 28.3888 35.5238 28.3875 35.5239C28.3863 35.5239 28.3851 35.524 28.3838 35.524C28.3826 35.5241 28.3814 35.5241 28.3801 35.5242C28.3789 35.5242 28.3777 35.5242 28.3764 35.5243C28.3752 35.5243 28.374 35.5244 28.3727 35.5244C28.3715 35.5245 28.3702 35.5245 28.369 35.5246C28.3678 35.5246 28.3665 35.5247 28.3653 35.5247C28.3641 35.5247 28.3628 35.5248 28.3616 35.5248C28.3604 35.5249 28.3591 35.5249 28.3579 35.525C28.3566 35.525 28.3554 35.5251 28.3542 35.5251C28.3529 35.5252 28.3517 35.5252 28.3505 35.5253C28.3492 35.5253 28.348 35.5253 28.3468 35.5254C28.3455 35.5254 28.3443 35.5255 28.3431 35.5255C28.3418 35.5256 28.3406 35.5256 28.3393 35.5257C28.3381 35.5257 28.3369 35.5258 28.3356 35.5258C28.3344 35.5258 28.3332 35.5259 28.3319 35.5259C28.3307 35.526 28.3295 35.526 28.3282 35.5261C28.327 35.5261 28.3258 35.5262 28.3245 35.5262C28.3233 35.5263 28.322 35.5263 28.3208 35.5264C28.3196 35.5264 28.3183 35.5264 28.3171 35.5265C28.3159 35.5265 28.3146 35.5266 28.3134 35.5266C28.3122 35.5267 28.3109 35.5267 28.3097 35.5268C28.3084 35.5268 28.3072 35.5269 28.306 35.5269C28.3047 35.5269 28.3035 35.527 28.3023 35.527C28.301 35.5271 28.2998 35.5271 28.2986 35.5272C28.2973 35.5272 28.2961 35.5273 28.2949 35.5273C28.2936 35.5274 28.2924 35.5274 28.2911 35.5274C28.2899 35.5275 28.2887 35.5275 28.2874 35.5276C28.2862 35.5276 28.285 35.5277 28.2837 35.5277C28.2825 35.5278 28.2813 35.5278 28.28 35.5279C28.2788 35.5279 28.2775 35.528 28.2763 35.528C28.2751 35.528 28.2738 35.5281 28.2726 35.5281C28.2714 35.5282 28.2701 35.5282 28.2689 35.5283C28.2677 35.5283 28.2664 35.5284 28.2652 35.5284C28.264 35.5285 28.2627 35.5285 28.2615 35.5285C28.2602 35.5286 28.259 35.5286 28.2578 35.5287C28.2565 35.5287 28.2553 35.5288 28.2541 35.5288C28.2528 35.5289 28.2516 35.5289 28.2504 35.529C28.2491 35.529 28.2479 35.5291 28.2466 35.5291C28.2454 35.5291 28.2442 35.5292 28.2429 35.5292C28.2417 35.5293 28.2405 35.5293 28.2392 35.5294C28.238 35.5294 28.2368 35.5295 28.2355 35.5295C28.2343 35.5296 28.2331 35.5296 28.2318 35.5296C28.2306 35.5297 28.2293 35.5297 28.2281 35.5298C28.2269 35.5298 28.2256 35.5299 28.2244 35.5299C28.2232 35.53 28.2219 35.53 28.2207 35.5301C28.2195 35.5301 28.2182 35.5301 28.217 35.5302C28.2158 35.5302 28.2145 35.5303 28.2133 35.5303C28.212 35.5304 28.2108 35.5304 28.2096 35.5305C28.2083 35.5305 28.2071 35.5306 28.2059 35.5306C28.2046 35.5307 28.2034 35.5307 28.2022 35.5307C28.2009 35.5308 28.1997 35.5308 28.1984 35.5309C28.1972 35.5309 28.196 35.531 28.1947 35.531C28.1935 35.5311 28.1923 35.5311 28.191 35.5312C28.1898 35.5312 28.1886 35.5312 28.1873 35.5313C28.1861 35.5313 28.1849 35.5314 28.1836 35.5314C28.1824 35.5315 28.1811 35.5315 28.1799 35.5316C28.1787 35.5316 28.1774 35.5317 28.1762 35.5317C28.175 35.5318 28.1737 35.5318 28.1725 35.5318C28.1713 35.5319 28.17 35.5319 28.1688 35.532C28.1675 35.532 28.1663 35.5321 28.1651 35.5321C28.1638 35.5322 28.1626 35.5322 28.1614 35.5323C28.1601 35.5323 28.1589 35.5323 28.1577 35.5324C28.1564 35.5324 28.1552 35.5325 28.154 35.5325C28.1527 35.5326 28.1515 35.5326 28.1502 35.5327C28.149 35.5327 28.1478 35.5328 28.1465 35.5328C28.1453 35.5329 28.1441 35.5329 28.1428 35.5329C28.1416 35.533 28.1404 35.533 28.1391 35.5331C28.1379 35.5331 28.1366 35.5332 28.1354 35.5332C28.1342 35.5333 28.1329 35.5333 28.1317 35.5334C28.1305 35.5334 28.1292 35.5334 28.128 35.5335C28.1268 35.5335 28.1255 35.5336 28.1243 35.5336C28.1231 35.5337 28.1218 35.5337 28.1206 35.5338C28.1193 35.5338 28.1181 35.5339 28.1169 35.5339C28.1156 35.5339 28.1144 35.534 28.1132 35.534C28.1119 35.5341 28.1107 35.5341 28.1095 35.5342C28.1082 35.5342 28.107 35.5343 28.1057 35.5343C28.1045 35.5344 28.1033 35.5344 28.102 35.5345C28.1008 35.5345 28.0996 35.5345 28.0983 35.5346C28.0971 35.5346 28.0959 35.5347 28.0946 35.5347C28.0934 35.5348 28.0922 35.5348 28.0909 35.5349C28.0897 35.5349 28.0884 35.535 28.0872 35.535C28.086 35.535 28.0847 35.5351 28.0835 35.5351C28.0823 35.5352 28.081 35.5352 28.0798 35.5353C28.0786 35.5353 28.0773 35.5354 28.0761 35.5354C28.0749 35.5355 28.0736 35.5355 28.0724 35.5356C28.0711 35.5356 28.0699 35.5356 28.0687 35.5357C28.0674 35.5357 28.0662 35.5358 28.065 35.5358C28.0637 35.5359 28.0625 35.5359 28.0613 35.536C28.06 35.536 28.0588 35.5361 28.0575 35.5361C28.0563 35.5361 28.0551 35.5362 28.0538 35.5362C28.0526 35.5363 28.0514 35.5363 28.0501 35.5364C28.0489 35.5364 28.0477 35.5365 28.0464 35.5365C28.0452 35.5366 28.044 35.5366 28.0427 35.5367C28.0415 35.5367 28.0402 35.5367 28.039 35.5368C28.0378 35.5368 28.0365 35.5369 28.0353 35.5369C28.0341 35.537 28.0328 35.537 28.0316 35.5371C28.0304 35.5371 28.0291 35.5372 28.0279 35.5372C28.0266 35.5372 28.0254 35.5373 28.0242 35.5373C28.0229 35.5374 28.0217 35.5374 28.0205 35.5375C28.0192 35.5375 28.018 35.5376 28.0168 35.5376C28.0155 35.5377 28.0143 35.5377 28.0131 35.5377C28.0118 35.5378 28.0106 35.5378 28.0093 35.5379C28.0081 35.5379 28.0069 35.538 28.0056 35.538C28.0044 35.5381 28.0032 35.5381 28.0019 35.5382C28.0007 35.5382 27.9995 35.5383 27.9982 35.5383C27.997 35.5383 27.9957 35.5384 27.9945 35.5384C27.9933 35.5385 27.992 35.5385 27.9908 35.5386C27.9896 35.5386 27.9883 35.5387 27.9871 35.5387C27.9859 35.5388 27.9846 35.5388 27.9834 35.5388C27.9822 35.5389 27.9809 35.5389 27.9797 35.539C27.9784 35.539 27.9772 35.5391 27.976 35.5391C27.9747 35.5392 27.9735 35.5392 27.9723 35.5393C27.971 35.5393 27.9698 35.5394 27.9686 35.5394C27.9673 35.5394 27.9661 35.5395 27.9648 35.5395C27.9636 35.5396 27.9624 35.5396 27.9611 35.5397C27.9599 35.5397 27.9587 35.5398 27.9574 35.5398C27.9562 35.5399 27.955 35.5399 27.9537 35.5399C27.9525 35.54 27.9513 35.54 27.95 35.5401C27.9488 35.5401 27.9475 35.5402 27.9463 35.5402C27.9451 35.5403 27.9438 35.5403 27.9426 35.5404C27.9414 35.5404 27.9401 35.5404 27.9389 35.5405C27.9377 35.5405 27.9364 35.5406 27.9352 35.5406C27.934 35.5407 27.9327 35.5407 27.9315 35.5408C27.9302 35.5408 27.929 35.5409 27.9278 35.5409C27.9265 35.541 27.9253 35.541 27.9241 35.541C27.9228 35.5411 27.9216 35.5411 27.9204 35.5412C27.9191 35.5412 27.9179 35.5413 27.9166 35.5413C27.9154 35.5414 27.9142 35.5414 27.9129 35.5415C27.9117 35.5415 27.9105 35.5415 27.9092 35.5416C27.908 35.5416 27.9068 35.5417 27.9055 35.5417C27.9043 35.5418 27.9031 35.5418 27.9018 35.5419C27.9006 35.5419 27.8993 35.542 27.8981 35.542C27.8969 35.5421 27.8956 35.5421 27.8944 35.5421C27.8932 35.5422 27.8919 35.5422 27.8907 35.5423C27.8895 35.5423 27.8882 35.5424 27.887 35.5424C27.8857 35.5425 27.8845 35.5425 27.8833 35.5426C27.882 35.5426 27.8808 35.5426 27.8796 35.5427C27.8783 35.5427 27.8771 35.5428 27.8759 35.5428C27.8746 35.5429 27.8734 35.5429 27.8722 35.543C27.8709 35.543 27.8697 35.5431 27.8684 35.5431C27.8672 35.5432 27.866 35.5432 27.8647 35.5432C27.8635 35.5433 27.8623 35.5433 27.861 35.5434C27.8598 35.5434 27.8586 35.5435 27.8573 35.5435C27.8561 35.5436 27.8548 35.5436 27.8536 35.5437L27.8906 36.543L27.9276 37.5423C27.9289 37.5422 27.9301 37.5422 27.9313 37.5421C27.9326 37.5421 27.9338 37.5421 27.9351 37.542C27.9363 37.542 27.9375 37.5419 27.9388 37.5419C27.94 37.5418 27.9412 37.5418 27.9425 37.5417C27.9437 37.5417 27.9449 37.5416 27.9462 37.5416C27.9474 37.5416 27.9486 37.5415 27.9499 37.5415C27.9511 37.5414 27.9524 37.5414 27.9536 37.5413C27.9548 37.5413 27.9561 37.5412 27.9573 37.5412C27.9585 37.5411 27.9598 37.5411 27.961 37.541C27.9622 37.541 27.9635 37.541 27.9647 37.5409C27.966 37.5409 27.9672 37.5408 27.9684 37.5408C27.9697 37.5407 27.9709 37.5407 27.9721 37.5406C27.9734 37.5406 27.9746 37.5405 27.9758 37.5405C27.9771 37.5405 27.9783 37.5404 27.9795 37.5404C27.9808 37.5403 27.982 37.5403 27.9833 37.5402C27.9845 37.5402 27.9857 37.5401 27.987 37.5401C27.9882 37.54 27.9894 37.54 27.9907 37.5399C27.9919 37.5399 27.9931 37.5399 27.9944 37.5398C27.9956 37.5398 27.9969 37.5397 27.9981 37.5397C27.9993 37.5396 28.0006 37.5396 28.0018 37.5395C28.003 37.5395 28.0043 37.5394 28.0055 37.5394C28.0067 37.5394 28.008 37.5393 28.0092 37.5393C28.0104 37.5392 28.0117 37.5392 28.0129 37.5391C28.0142 37.5391 28.0154 37.539 28.0166 37.539C28.0179 37.5389 28.0191 37.5389 28.0203 37.5389C28.0216 37.5388 28.0228 37.5388 28.024 37.5387C28.0253 37.5387 28.0265 37.5386 28.0277 37.5386C28.029 37.5385 28.0302 37.5385 28.0315 37.5384C28.0327 37.5384 28.0339 37.5383 28.0352 37.5383C28.0364 37.5383 28.0376 37.5382 28.0389 37.5382C28.0401 37.5381 28.0413 37.5381 28.0426 37.538C28.0438 37.538 28.0451 37.5379 28.0463 37.5379C28.0475 37.5378 28.0488 37.5378 28.05 37.5378C28.0512 37.5377 28.0525 37.5377 28.0537 37.5376C28.0549 37.5376 28.0562 37.5375 28.0574 37.5375C28.0586 37.5374 28.0599 37.5374 28.0611 37.5373C28.0624 37.5373 28.0636 37.5372 28.0648 37.5372C28.0661 37.5372 28.0673 37.5371 28.0685 37.5371C28.0698 37.537 28.071 37.537 28.0722 37.5369C28.0735 37.5369 28.0747 37.5368 28.076 37.5368C28.0772 37.5367 28.0784 37.5367 28.0797 37.5367C28.0809 37.5366 28.0821 37.5366 28.0834 37.5365C28.0846 37.5365 28.0858 37.5364 28.0871 37.5364C28.0883 37.5363 28.0895 37.5363 28.0908 37.5362C28.092 37.5362 28.0933 37.5361 28.0945 37.5361C28.0957 37.5361 28.097 37.536 28.0982 37.536C28.0994 37.5359 28.1007 37.5359 28.1019 37.5358C28.1031 37.5358 28.1044 37.5357 28.1056 37.5357C28.1069 37.5356 28.1081 37.5356 28.1093 37.5356C28.1106 37.5355 28.1118 37.5355 28.113 37.5354C28.1143 37.5354 28.1155 37.5353 28.1167 37.5353C28.118 37.5352 28.1192 37.5352 28.1204 37.5351C28.1217 37.5351 28.1229 37.5351 28.1242 37.535C28.1254 37.535 28.1266 37.5349 28.1279 37.5349C28.1291 37.5348 28.1303 37.5348 28.1316 37.5347C28.1328 37.5347 28.134 37.5346 28.1353 37.5346C28.1365 37.5345 28.1378 37.5345 28.139 37.5345C28.1402 37.5344 28.1415 37.5344 28.1427 37.5343C28.1439 37.5343 28.1452 37.5342 28.1464 37.5342C28.1476 37.5341 28.1489 37.5341 28.1501 37.534C28.1513 37.534 28.1526 37.534 28.1538 37.5339C28.1551 37.5339 28.1563 37.5338 28.1575 37.5338C28.1588 37.5337 28.16 37.5337 28.1612 37.5336C28.1625 37.5336 28.1637 37.5335 28.1649 37.5335C28.1662 37.5334 28.1674 37.5334 28.1686 37.5334C28.1699 37.5333 28.1711 37.5333 28.1724 37.5332C28.1736 37.5332 28.1748 37.5331 28.1761 37.5331C28.1773 37.533 28.1785 37.533 28.1798 37.5329C28.181 37.5329 28.1822 37.5329 28.1835 37.5328C28.1847 37.5328 28.186 37.5327 28.1872 37.5327C28.1884 37.5326 28.1897 37.5326 28.1909 37.5325C28.1921 37.5325 28.1934 37.5324 28.1946 37.5324C28.1958 37.5324 28.1971 37.5323 28.1983 37.5323C28.1995 37.5322 28.2008 37.5322 28.202 37.5321C28.2033 37.5321 28.2045 37.532 28.2057 37.532C28.207 37.5319 28.2082 37.5319 28.2094 37.5318C28.2107 37.5318 28.2119 37.5318 28.2131 37.5317C28.2144 37.5317 28.2156 37.5316 28.2169 37.5316C28.2181 37.5315 28.2193 37.5315 28.2206 37.5314C28.2218 37.5314 28.223 37.5313 28.2243 37.5313C28.2255 37.5313 28.2267 37.5312 28.228 37.5312C28.2292 37.5311 28.2304 37.5311 28.2317 37.531C28.2329 37.531 28.2342 37.5309 28.2354 37.5309C28.2366 37.5308 28.2379 37.5308 28.2391 37.5307C28.2403 37.5307 28.2416 37.5307 28.2428 37.5306C28.244 37.5306 28.2453 37.5305 28.2465 37.5305C28.2478 37.5304 28.249 37.5304 28.2502 37.5303C28.2515 37.5303 28.2527 37.5302 28.2539 37.5302C28.2552 37.5302 28.2564 37.5301 28.2576 37.5301C28.2589 37.53 28.2601 37.53 28.2613 37.5299C28.2626 37.5299 28.2638 37.5298 28.2651 37.5298C28.2663 37.5297 28.2675 37.5297 28.2688 37.5296C28.27 37.5296 28.2712 37.5296 28.2725 37.5295C28.2737 37.5295 28.2749 37.5294 28.2762 37.5294C28.2774 37.5293 28.2786 37.5293 28.2799 37.5292C28.2811 37.5292 28.2824 37.5291 28.2836 37.5291C28.2848 37.5291 28.2861 37.529 28.2873 37.529C28.2885 37.5289 28.2898 37.5289 28.291 37.5288C28.2922 37.5288 28.2935 37.5287 28.2947 37.5287C28.296 37.5286 28.2972 37.5286 28.2984 37.5286C28.2997 37.5285 28.3009 37.5285 28.3021 37.5284C28.3034 37.5284 28.3046 37.5283 28.3058 37.5283C28.3071 37.5282 28.3083 37.5282 28.3095 37.5281C28.3108 37.5281 28.312 37.528 28.3133 37.528C28.3145 37.528 28.3157 37.5279 28.317 37.5279C28.3182 37.5278 28.3194 37.5278 28.3207 37.5277C28.3219 37.5277 28.3231 37.5276 28.3244 37.5276C28.3256 37.5275 28.3269 37.5275 28.3281 37.5275C28.3293 37.5274 28.3306 37.5274 28.3318 37.5273C28.333 37.5273 28.3343 37.5272 28.3355 37.5272C28.3367 37.5271 28.338 37.5271 28.3392 37.527C28.3404 37.527 28.3417 37.5269 28.3429 37.5269C28.3442 37.5269 28.3454 37.5268 28.3466 37.5268C28.3479 37.5267 28.3491 37.5267 28.3503 37.5266C28.3516 37.5266 28.3528 37.5265 28.354 37.5265C28.3553 37.5264 28.3565 37.5264 28.3578 37.5264C28.359 37.5263 28.3602 37.5263 28.3615 37.5262C28.3627 37.5262 28.3639 37.5261 28.3652 37.5261C28.3664 37.526 28.3676 37.526 28.3689 37.5259C28.3701 37.5259 28.3713 37.5258 28.3726 37.5258C28.3738 37.5258 28.3751 37.5257 28.3763 37.5257C28.3775 37.5256 28.3788 37.5256 28.38 37.5255C28.3812 37.5255 28.3825 37.5254 28.3837 37.5254C28.3849 37.5253 28.3862 37.5253 28.3874 37.5253C28.3887 37.5252 28.3899 37.5252 28.3911 37.5251C28.3924 37.5251 28.3936 37.525 28.3948 37.525C28.3961 37.5249 28.3973 37.5249 28.3985 37.5248C28.3998 37.5248 28.401 37.5248 28.4022 37.5247C28.4035 37.5247 28.4047 37.5246 28.406 37.5246C28.4072 37.5245 28.4084 37.5245 28.4097 37.5244C28.4109 37.5244 28.4121 37.5243 28.4134 37.5243C28.4146 37.5242 28.4158 37.5242 28.4171 37.5242C28.4183 37.5241 28.4195 37.5241 28.4208 37.524C28.422 37.524 28.4233 37.5239 28.4245 37.5239C28.4257 37.5238 28.427 37.5238 28.4282 37.5237C28.4294 37.5237 28.4307 37.5237 28.4319 37.5236C28.4331 37.5236 28.4344 37.5235 28.4356 37.5235C28.4369 37.5234 28.4381 37.5234 28.4393 37.5233C28.4406 37.5233 28.4418 37.5232 28.443 37.5232C28.4443 37.5231 28.4455 37.5231 28.4467 37.5231C28.448 37.523 28.4492 37.523 28.4504 37.5229C28.4517 37.5229 28.4529 37.5228 28.4542 37.5228C28.4554 37.5227 28.4566 37.5227 28.4579 37.5226C28.4591 37.5226 28.4603 37.5226 28.4616 37.5225C28.4628 37.5225 28.464 37.5224 28.4653 37.5224C28.4665 37.5223 28.4678 37.5223 28.469 37.5222C28.4702 37.5222 28.4715 37.5221 28.4727 37.5221C28.4739 37.5221 28.4752 37.522 28.4764 37.522C28.4776 37.5219 28.4789 37.5219 28.4801 37.5218C28.4813 37.5218 28.4826 37.5217 28.4838 37.5217C28.4851 37.5216 28.4863 37.5216 28.4875 37.5215C28.4888 37.5215 28.49 37.5215 28.4912 37.5214C28.4925 37.5214 28.4937 37.5213 28.4949 37.5213C28.4962 37.5212 28.4974 37.5212 28.4987 37.5211C28.4999 37.5211 28.5011 37.521 28.5024 37.521C28.5036 37.521 28.5048 37.5209 28.5061 37.5209C28.5073 37.5208 28.5085 37.5208 28.5098 37.5207C28.511 37.5207 28.5122 37.5206 28.5135 37.5206C28.5147 37.5205 28.516 37.5205 28.5172 37.5204C28.5184 37.5204 28.5197 37.5204 28.5209 37.5203C28.5221 37.5203 28.5234 37.5202 28.5246 37.5202C28.5258 37.5201 28.5271 37.5201 28.5283 37.52C28.5296 37.52 28.5308 37.5199 28.532 37.5199C28.5333 37.5199 28.5345 37.5198 28.5357 37.5198C28.537 37.5197 28.5382 37.5197 28.5394 37.5196C28.5407 37.5196 28.5419 37.5195 28.5431 37.5195C28.5444 37.5194 28.5456 37.5194 28.5469 37.5193C28.5481 37.5193 28.5493 37.5193 28.5506 37.5192C28.5518 37.5192 28.553 37.5191 28.5543 37.5191C28.5555 37.519 28.5567 37.519 28.558 37.5189C28.5592 37.5189 28.5604 37.5188 28.5617 37.5188C28.5629 37.5188 28.5642 37.5187 28.5654 37.5187C28.5666 37.5186 28.5679 37.5186 28.5691 37.5185C28.5703 37.5185 28.5716 37.5184 28.5728 37.5184C28.574 37.5183 28.5753 37.5183 28.5765 37.5183C28.5778 37.5182 28.579 37.5182 28.5802 37.5181C28.5815 37.5181 28.5827 37.518 28.5839 37.518C28.5852 37.5179 28.5864 37.5179 28.5876 37.5178C28.5889 37.5178 28.5901 37.5177 28.5913 37.5177C28.5926 37.5177 28.5938 37.5176 28.5951 37.5176C28.5963 37.5175 28.5975 37.5175 28.5988 37.5174C28.6 37.5174 28.6012 37.5173 28.6025 37.5173C28.6037 37.5172 28.6049 37.5172 28.6062 37.5172C28.6074 37.5171 28.6087 37.5171 28.6099 37.517C28.6111 37.517 28.6124 37.5169 28.6136 37.5169C28.6148 37.5168 28.6161 37.5168 28.6173 37.5167C28.6185 37.5167 28.6198 37.5166 28.621 37.5166C28.6222 37.5166 28.6235 37.5165 28.6247 37.5165C28.626 37.5164 28.6272 37.5164 28.6284 37.5163C28.6297 37.5163 28.6309 37.5162 28.6321 37.5162C28.6334 37.5161 28.6346 37.5161 28.6358 37.5161C28.6371 37.516 28.6383 37.516 28.6396 37.5159C28.6408 37.5159 28.642 37.5158 28.6433 37.5158C28.6445 37.5157 28.6457 37.5157 28.647 37.5156C28.6482 37.5156 28.6494 37.5156 28.6507 37.5155C28.6519 37.5155 28.6531 37.5154 28.6544 37.5154C28.6556 37.5153 28.6569 37.5153 28.6581 37.5152C28.6593 37.5152 28.6606 37.5151 28.6618 37.5151C28.663 37.515 28.6643 37.515 28.6655 37.515C28.6667 37.5149 28.668 37.5149 28.6692 37.5148C28.6704 37.5148 28.6717 37.5147 28.6729 37.5147C28.6742 37.5146 28.6754 37.5146 28.6766 37.5145C28.6779 37.5145 28.6791 37.5145 28.6803 37.5144C28.6816 37.5144 28.6828 37.5143 28.684 37.5143C28.6853 37.5142 28.6865 37.5142 28.6878 37.5141C28.689 37.5141 28.6902 37.514 28.6915 37.514C28.6927 37.5139 28.6939 37.5139 28.6952 37.5139C28.6964 37.5138 28.6976 37.5138 28.6989 37.5137C28.7001 37.5137 28.7013 37.5136 28.7026 37.5136C28.7038 37.5135 28.7051 37.5135 28.7063 37.5134C28.7075 37.5134 28.7088 37.5134 28.71 37.5133C28.7112 37.5133 28.7125 37.5132 28.7137 37.5132C28.7149 37.5131 28.7162 37.5131 28.7174 37.513C28.7187 37.513 28.7199 37.5129 28.7211 37.5129C28.7224 37.5128 28.7236 37.5128 28.7248 37.5128C28.7261 37.5127 28.7273 37.5127 28.7285 37.5126C28.7298 37.5126 28.731 37.5125 28.7322 37.5125C28.7335 37.5124 28.7347 37.5124 28.736 37.5123C28.7372 37.5123 28.7384 37.5123 28.7397 37.5122C28.7409 37.5122 28.7421 37.5121 28.7434 37.5121C28.7446 37.512 28.7458 37.512 28.7471 37.5119C28.7483 37.5119 28.7496 37.5118 28.7508 37.5118C28.752 37.5118 28.7533 37.5117 28.7545 37.5117C28.7557 37.5116 28.757 37.5116 28.7582 37.5115C28.7594 37.5115 28.7607 37.5114 28.7619 37.5114C28.7631 37.5113 28.7644 37.5113 28.7656 37.5112C28.7669 37.5112 28.7681 37.5112 28.7693 37.5111C28.7706 37.5111 28.7718 37.511 28.773 37.511C28.7743 37.5109 28.7755 37.5109 28.7767 37.5108C28.778 37.5108 28.7792 37.5107 28.7805 37.5107C28.7817 37.5107 28.7829 37.5106 28.7842 37.5106C28.7854 37.5105 28.7866 37.5105 28.7879 37.5104C28.7891 37.5104 28.7903 37.5103 28.7916 37.5103C28.7928 37.5102 28.794 37.5102 28.7953 37.5101C28.7965 37.5101 28.7978 37.5101 28.799 37.51C28.8002 37.51 28.8015 37.5099 28.8027 37.5099C28.8039 37.5098 28.8052 37.5098 28.8064 37.5097C28.8076 37.5097 28.8089 37.5096 28.8101 37.5096C28.8113 37.5096 28.8126 37.5095 28.8138 37.5095C28.8151 37.5094 28.8163 37.5094 28.8175 37.5093C28.8188 37.5093 28.82 37.5092 28.8212 37.5092C28.8225 37.5091 28.8237 37.5091 28.8249 37.509C28.8262 37.509 28.8274 37.509 28.8287 37.5089C28.8299 37.5089 28.8311 37.5088 28.8324 37.5088C28.8336 37.5087 28.8348 37.5087 28.8361 37.5086C28.8373 37.5086 28.8385 37.5085 28.8398 37.5085C28.841 37.5085 28.8422 37.5084 28.8435 37.5084C28.8447 37.5083 28.846 37.5083 28.8472 37.5082C28.8484 37.5082 28.8497 37.5081 28.8509 37.5081C28.8521 37.508 28.8534 37.508 28.8546 37.508C28.8558 37.5079 28.8571 37.5079 28.8583 37.5078C28.8596 37.5078 28.8608 37.5077 28.862 37.5077C28.8633 37.5076 28.8645 37.5076 28.8657 37.5075C28.867 37.5075 28.8682 37.5074 28.8694 37.5074C28.8707 37.5074 28.8719 37.5073 28.8731 37.5073C28.8744 37.5072 28.8756 37.5072 28.8769 37.5071C28.8781 37.5071 28.8793 37.507 28.8806 37.507C28.8818 37.5069 28.883 37.5069 28.8843 37.5069C28.8855 37.5068 28.8867 37.5068 28.888 37.5067C28.8892 37.5067 28.8905 37.5066 28.8917 37.5066C28.8929 37.5065 28.8942 37.5065 28.8954 37.5064C28.8966 37.5064 28.8979 37.5063 28.8991 37.5063C28.9003 37.5063 28.9016 37.5062 28.9028 37.5062C28.904 37.5061 28.9053 37.5061 28.9065 37.506C28.9078 37.506 28.909 37.5059 28.9102 37.5059C28.9115 37.5058 28.9127 37.5058 28.9139 37.5058C28.9152 37.5057 28.9164 37.5057 28.9176 37.5056C28.9189 37.5056 28.9201 37.5055 28.9214 37.5055C28.9226 37.5054 28.9238 37.5054 28.9251 37.5053C28.9263 37.5053 28.9275 37.5053 28.9288 37.5052C28.93 37.5052 28.9312 37.5051 28.9325 37.5051C28.9337 37.505 28.9349 37.505 28.9362 37.5049C28.9374 37.5049 28.9387 37.5048 28.9399 37.5048C28.9411 37.5047 28.9424 37.5047 28.9436 37.5047C28.9448 37.5046 28.9461 37.5046 28.9473 37.5045C28.9485 37.5045 28.9498 37.5044 28.951 37.5044C28.9522 37.5043 28.9535 37.5043 28.9547 37.5042C28.956 37.5042 28.9572 37.5042 28.9584 37.5041C28.9597 37.5041 28.9609 37.504 28.9621 37.504C28.9634 37.5039 28.9646 37.5039 28.9658 37.5038C28.9671 37.5038 28.9683 37.5037 28.9696 37.5037C28.9708 37.5036 28.972 37.5036 28.9733 37.5036C28.9745 37.5035 28.9757 37.5035 28.977 37.5034C28.9782 37.5034 28.9794 37.5033 28.9807 37.5033C28.9819 37.5032 28.9831 37.5032 28.9844 37.5031C28.9856 37.5031 28.9869 37.5031 28.9881 37.503C28.9893 37.503 28.9906 37.5029 28.9918 37.5029C28.993 37.5028 28.9943 37.5028 28.9955 37.5027C28.9967 37.5027 28.998 37.5026 28.9992 37.5026C29.0005 37.5025 29.0017 37.5025 29.0029 37.5025C29.0042 37.5024 29.0054 37.5024 29.0066 37.5023C29.0079 37.5023 29.0091 37.5022 29.0103 37.5022C29.0116 37.5021 29.0128 37.5021 29.014 37.502C29.0153 37.502 29.0165 37.502 29.0178 37.5019C29.019 37.5019 29.0202 37.5018 29.0215 37.5018C29.0227 37.5017 29.0239 37.5017 29.0252 37.5016C29.0264 37.5016 29.0276 37.5015 29.0289 37.5015C29.0301 37.5015 29.0314 37.5014 29.0326 37.5014C29.0338 37.5013 29.0351 37.5013 29.0363 37.5012C29.0375 37.5012 29.0388 37.5011 29.04 37.5011C29.0412 37.501 29.0425 37.501 29.0437 37.5009C29.0449 37.5009 29.0462 37.5009 29.0474 37.5008C29.0487 37.5008 29.0499 37.5007 29.0511 37.5007C29.0524 37.5006 29.0536 37.5006 29.0548 37.5005C29.0561 37.5005 29.0573 37.5004 29.0585 37.5004C29.0598 37.5004 29.061 37.5003 29.0622 37.5003C29.0635 37.5002 29.0647 37.5002 29.066 37.5001C29.0672 37.5001 29.0684 37.5 29.0697 37.5C29.0709 37.4999 29.0721 37.4999 29.0734 37.4998C29.0746 37.4998 29.0758 37.4998 29.0771 37.4997C29.0783 37.4997 29.0796 37.4996 29.0808 37.4996C29.082 37.4995 29.0833 37.4995 29.0845 37.4994C29.0857 37.4994 29.087 37.4993 29.0882 37.4993C29.0894 37.4993 29.0907 37.4992 29.0919 37.4992C29.0931 37.4991 29.0944 37.4991 29.0956 37.499C29.0969 37.499 29.0981 37.4989 29.0993 37.4989C29.1006 37.4988 29.1018 37.4988 29.103 37.4988C29.1043 37.4987 29.1055 37.4987 29.1067 37.4986C29.108 37.4986 29.1092 37.4985 29.1105 37.4985C29.1117 37.4984 29.1129 37.4984 29.1142 37.4983C29.1154 37.4983 29.1166 37.4982 29.1179 37.4982C29.1191 37.4982 29.1203 37.4981 29.1216 37.4981C29.1228 37.498 29.124 37.498 29.1253 37.4979C29.1265 37.4979 29.1278 37.4978 29.129 37.4978C29.1302 37.4977 29.1315 37.4977 29.1327 37.4977C29.1339 37.4976 29.1352 37.4976 29.1364 37.4975C29.1376 37.4975 29.1389 37.4974 29.1401 37.4974C29.1414 37.4973 29.1426 37.4973 29.1438 37.4972C29.1451 37.4972 29.1463 37.4971 29.1475 37.4971C29.1488 37.4971 29.15 37.497 29.1512 37.497C29.1525 37.4969 29.1537 37.4969 29.1549 37.4968C29.1562 37.4968 29.1574 37.4967 29.1587 37.4967C29.1599 37.4966 29.1611 37.4966 29.1624 37.4966C29.1636 37.4965 29.1648 37.4965 29.1661 37.4964C29.1673 37.4964 29.1685 37.4963 29.1698 37.4963C29.171 37.4962 29.1723 37.4962 29.1735 37.4961C29.1747 37.4961 29.176 37.496 29.1772 37.496C29.1784 37.496 29.1797 37.4959 29.1809 37.4959C29.1821 37.4958 29.1834 37.4958 29.1846 37.4957C29.1858 37.4957 29.1871 37.4956 29.1883 37.4956C29.1896 37.4955 29.1908 37.4955 29.192 37.4955C29.1933 37.4954 29.1945 37.4954 29.1957 37.4953C29.197 37.4953 29.1982 37.4952 29.1994 37.4952C29.2007 37.4951 29.2019 37.4951 29.2031 37.495C29.2044 37.495 29.2056 37.495 29.2069 37.4949C29.2081 37.4949 29.2093 37.4948 29.2106 37.4948C29.2118 37.4947 29.213 37.4947 29.2143 37.4946C29.2155 37.4946 29.2167 37.4945 29.218 37.4945C29.2192 37.4944 29.2205 37.4944 29.2217 37.4944C29.2229 37.4943 29.2242 37.4943 29.2254 37.4942C29.2266 37.4942 29.2279 37.4941 29.2291 37.4941C29.2303 37.494 29.2316 37.494 29.2328 37.4939C29.234 37.4939 29.2353 37.4939 29.2365 37.4938C29.2378 37.4938 29.239 37.4937 29.2402 37.4937C29.2415 37.4936 29.2427 37.4936 29.2439 37.4935C29.2452 37.4935 29.2464 37.4934 29.2476 37.4934C29.2489 37.4933 29.2501 37.4933 29.2514 37.4933C29.2526 37.4932 29.2538 37.4932 29.2551 37.4931C29.2563 37.4931 29.2575 37.493 29.2588 37.493C29.26 37.4929 29.2612 37.4929 29.2625 37.4928C29.2637 37.4928 29.2649 37.4928 29.2662 37.4927C29.2674 37.4927 29.2687 37.4926 29.2699 37.4926C29.2711 37.4925 29.2724 37.4925 29.2736 37.4924C29.2748 37.4924 29.2761 37.4923 29.2773 37.4923C29.2785 37.4923 29.2798 37.4922 29.281 37.4922C29.2823 37.4921 29.2835 37.4921 29.2847 37.492C29.286 37.492 29.2872 37.4919 29.2884 37.4919C29.2897 37.4918 29.2909 37.4918 29.2921 37.4917C29.2934 37.4917 29.2946 37.4917 29.2958 37.4916C29.2971 37.4916 29.2983 37.4915 29.2996 37.4915C29.3008 37.4914 29.302 37.4914 29.3033 37.4913C29.3045 37.4913 29.3057 37.4912 29.307 37.4912C29.3082 37.4912 29.3094 37.4911 29.3107 37.4911C29.3119 37.491 29.3131 37.491 29.3144 37.4909C29.3156 37.4909 29.3169 37.4908 29.3181 37.4908C29.3193 37.4907 29.3206 37.4907 29.3218 37.4906C29.323 37.4906 29.3243 37.4906 29.3255 37.4905C29.3267 37.4905 29.328 37.4904 29.3292 37.4904C29.3305 37.4903 29.3317 37.4903 29.3329 37.4902C29.3342 37.4902 29.3354 37.4901 29.3366 37.4901C29.3379 37.4901 29.3391 37.49 29.3403 37.49C29.3416 37.4899 29.3428 37.4899 29.344 37.4898C29.3453 37.4898 29.3465 37.4897 29.3478 37.4897C29.349 37.4896 29.3502 37.4896 29.3515 37.4895C29.3527 37.4895 29.3539 37.4895 29.3552 37.4894C29.3564 37.4894 29.3576 37.4893 29.3589 37.4893C29.3601 37.4892 29.3614 37.4892 29.3626 37.4891C29.3638 37.4891 29.3651 37.489 29.3663 37.489C29.3675 37.489 29.3688 37.4889 29.37 37.4889C29.3712 37.4888 29.3725 37.4888 29.3737 37.4887C29.3749 37.4887 29.3762 37.4886 29.3774 37.4886C29.3787 37.4885 29.3799 37.4885 29.3811 37.4885C29.3824 37.4884 29.3836 37.4884 29.3848 37.4883C29.3861 37.4883 29.3873 37.4882 29.3885 37.4882C29.3898 37.4881 29.391 37.4881 29.3923 37.488C29.3935 37.488 29.3947 37.4879 29.396 37.4879C29.3972 37.4879 29.3984 37.4878 29.3997 37.4878C29.4009 37.4877 29.4021 37.4877 29.4034 37.4876C29.4046 37.4876 29.4058 37.4875 29.4071 37.4875C29.4083 37.4874 29.4096 37.4874 29.4108 37.4874C29.412 37.4873 29.4133 37.4873 29.4145 37.4872C29.4157 37.4872 29.417 37.4871 29.4182 37.4871C29.4194 37.487 29.4207 37.487 29.4219 37.4869C29.4232 37.4869 29.4244 37.4868 29.4256 37.4868C29.4269 37.4868 29.4281 37.4867 29.4293 37.4867C29.4306 37.4866 29.4318 37.4866 29.433 37.4865C29.4343 37.4865 29.4355 37.4864 29.4367 37.4864C29.438 37.4863 29.4392 37.4863 29.4405 37.4863C29.4417 37.4862 29.4429 37.4862 29.4442 37.4861C29.4454 37.4861 29.4466 37.486 29.4479 37.486C29.4491 37.4859 29.4503 37.4859 29.4516 37.4858C29.4528 37.4858 29.454 37.4857 29.4553 37.4857C29.4565 37.4857 29.4578 37.4856 29.459 37.4856C29.4602 37.4855 29.4615 37.4855 29.4627 37.4854C29.4639 37.4854 29.4652 37.4853 29.4664 37.4853C29.4676 37.4852 29.4689 37.4852 29.4701 37.4852C29.4714 37.4851 29.4726 37.4851 29.4738 37.485C29.4751 37.485 29.4763 37.4849 29.4775 37.4849C29.4788 37.4848 29.48 37.4848 29.4812 37.4847C29.4825 37.4847 29.4837 37.4847 29.4849 37.4846C29.4862 37.4846 29.4874 37.4845 29.4887 37.4845C29.4899 37.4844 29.4911 37.4844 29.4924 37.4843C29.4936 37.4843 29.4948 37.4842 29.4961 37.4842C29.4973 37.4841 29.4985 37.4841 29.4998 37.4841C29.501 37.484 29.5023 37.484 29.5035 37.4839C29.5047 37.4839 29.506 37.4838 29.5072 37.4838C29.5084 37.4837 29.5097 37.4837 29.5109 37.4836C29.5121 37.4836 29.5134 37.4836 29.5146 37.4835C29.5158 37.4835 29.5171 37.4834 29.5183 37.4834C29.5196 37.4833 29.5208 37.4833 29.522 37.4832C29.5233 37.4832 29.5245 37.4831 29.5257 37.4831C29.527 37.483 29.5282 37.483 29.5294 37.483C29.5307 37.4829 29.5319 37.4829 29.5332 37.4828C29.5344 37.4828 29.5356 37.4827 29.5369 37.4827C29.5381 37.4826 29.5393 37.4826 29.5406 37.4825C29.5418 37.4825 29.543 37.4825 29.5443 37.4824C29.5455 37.4824 29.5467 37.4823 29.548 37.4823C29.5492 37.4822 29.5505 37.4822 29.5517 37.4821C29.5529 37.4821 29.5542 37.482 29.5554 37.482C29.5566 37.482 29.5579 37.4819 29.5591 37.4819C29.5603 37.4818 29.5616 37.4818 29.5628 37.4817C29.5641 37.4817 29.5653 37.4816 29.5665 37.4816C29.5678 37.4815 29.569 37.4815 29.5702 37.4814C29.5715 37.4814 29.5727 37.4814 29.5739 37.4813C29.5752 37.4813 29.5764 37.4812 29.5776 37.4812C29.5789 37.4811 29.5801 37.4811 29.5814 37.481C29.5826 37.481 29.5838 37.4809 29.5851 37.4809C29.5863 37.4809 29.5875 37.4808 29.5888 37.4808C29.59 37.4807 29.5912 37.4807 29.5925 37.4806C29.5937 37.4806 29.5949 37.4805 29.5962 37.4805C29.5974 37.4804 29.5987 37.4804 29.5999 37.4803C29.6011 37.4803 29.6024 37.4803 29.6036 37.4802C29.6048 37.4802 29.6061 37.4801 29.6073 37.4801C29.6085 37.48 29.6098 37.48 29.611 37.4799C29.6123 37.4799 29.6135 37.4798 29.6147 37.4798C29.616 37.4798 29.6172 37.4797 29.6184 37.4797C29.6197 37.4796 29.6209 37.4796 29.6221 37.4795C29.6234 37.4795 29.6246 37.4794 29.6258 37.4794C29.6271 37.4793 29.6283 37.4793 29.6296 37.4792C29.6308 37.4792 29.632 37.4792 29.6333 37.4791C29.6345 37.4791 29.6357 37.479 29.637 37.479C29.6382 37.4789 29.6394 37.4789 29.6407 37.4788C29.6419 37.4788 29.6432 37.4787 29.6444 37.4787C29.6456 37.4787 29.6469 37.4786 29.6481 37.4786C29.6493 37.4785 29.6506 37.4785 29.6518 37.4784C29.653 37.4784 29.6543 37.4783 29.6555 37.4783C29.6567 37.4782 29.658 37.4782 29.6592 37.4782C29.6605 37.4781 29.6617 37.4781 29.6629 37.478C29.6642 37.478 29.6654 37.4779 29.6666 37.4779C29.6679 37.4778 29.6691 37.4778 29.6703 37.4777C29.6716 37.4777 29.6728 37.4776 29.6741 37.4776C29.6753 37.4776 29.6765 37.4775 29.6778 37.4775C29.679 37.4774 29.6802 37.4774 29.6815 37.4773C29.6827 37.4773 29.6839 37.4772 29.6852 37.4772C29.6864 37.4771 29.6876 37.4771 29.6889 37.4771C29.6901 37.477 29.6914 37.477 29.6926 37.4769C29.6938 37.4769 29.6951 37.4768 29.6963 37.4768C29.6975 37.4767 29.6988 37.4767 29.7 37.4766C29.7012 37.4766 29.7025 37.4765 29.7037 37.4765C29.7049 37.4765 29.7062 37.4764 29.7074 37.4764C29.7087 37.4763 29.7099 37.4763 29.7111 37.4762C29.7124 37.4762 29.7136 37.4761 29.7148 37.4761C29.7161 37.476 29.7173 37.476 29.7185 37.476C29.7198 37.4759 29.721 37.4759 29.7223 37.4758C29.7235 37.4758 29.7247 37.4757 29.726 37.4757C29.7272 37.4756 29.7284 37.4756 29.7297 37.4755C29.7309 37.4755 29.7321 37.4755 29.7334 37.4754C29.7346 37.4754 29.7358 37.4753 29.7371 37.4753C29.7383 37.4752 29.7396 37.4752 29.7408 37.4751C29.742 37.4751 29.7433 37.475 29.7445 37.475C29.7457 37.4749 29.747 37.4749 29.7482 37.4749C29.7494 37.4748 29.7507 37.4748 29.7519 37.4747C29.7532 37.4747 29.7544 37.4746 29.7556 37.4746C29.7569 37.4745 29.7581 37.4745 29.7593 37.4744C29.7606 37.4744 29.7618 37.4744 29.763 37.4743C29.7643 37.4743 29.7655 37.4742 29.7667 37.4742C29.768 37.4741 29.7692 37.4741 29.7705 37.474C29.7717 37.474 29.7729 37.4739 29.7742 37.4739C29.7754 37.4738 29.7766 37.4738 29.7779 37.4738C29.7791 37.4737 29.7803 37.4737 29.7816 37.4736C29.7828 37.4736 29.7841 37.4735 29.7853 37.4735C29.7865 37.4734 29.7878 37.4734 29.789 37.4733C29.7902 37.4733 29.7915 37.4733 29.7927 37.4732C29.7939 37.4732 29.7952 37.4731 29.7964 37.4731C29.7976 37.473 29.7989 37.473 29.8001 37.4729C29.8014 37.4729 29.8026 37.4728 29.8038 37.4728C29.8051 37.4727 29.8063 37.4727 29.8075 37.4727C29.8088 37.4726 29.81 37.4726 29.8112 37.4725C29.8125 37.4725 29.8137 37.4724 29.815 37.4724C29.8162 37.4723 29.8174 37.4723 29.8187 37.4722C29.8199 37.4722 29.8211 37.4722 29.8224 37.4721C29.8236 37.4721 29.8248 37.472 29.8261 37.472L29.7891 36.4727ZM27.8906 36.543V35.543C27.2701 35.543 26.6741 35.5315 26.1025 35.5086L26.0625 36.5078L26.0225 37.507C26.6228 37.531 27.2455 37.543 27.8906 37.543V36.543ZM26.0625 36.5078L26.1025 35.5086C25.5316 35.4858 25.0111 35.4517 24.5401 35.4068L24.4453 36.4023L24.3505 37.3978C24.8639 37.4467 25.4215 37.483 26.0225 37.507L26.0625 36.5078ZM24.4453 36.4023L24.8768 37.3045C25.4562 37.0274 25.9593 36.7332 26.3639 36.4152L25.7461 35.6289L25.1283 34.8426C24.8767 35.0403 24.5126 35.2617 24.0139 35.5002L24.4453 36.4023ZM25.7461 35.6289L26.3375 36.4353C26.7075 36.1639 27.0228 35.907 27.2618 35.668L26.5547 34.9609L25.8476 34.2538C25.7115 34.3899 25.4878 34.5783 25.1547 34.8225L25.7461 35.6289ZM26.5547 34.9609L27.298 35.6299C27.542 35.3587 27.7575 35.0727 27.9061 34.7753L27.0117 34.3281L26.1173 33.8809C26.0785 33.9585 25.9892 34.0944 25.8114 34.292L26.5547 34.9609ZM27.0117 34.3281L27.9956 34.507C28.0482 34.2176 28.1217 33.6867 28.2149 32.9404L27.2227 32.8164L26.2304 32.6924C26.1362 33.4462 26.069 33.923 26.0278 34.1492L27.0117 34.3281ZM27.2227 32.8164L28.2165 32.9268C28.2875 32.2885 28.3816 31.3819 28.4989 30.2089L27.5039 30.1094L26.5089 30.0099C26.3918 31.1806 26.2985 32.0787 26.2288 32.706L27.2227 32.8164ZM27.5039 30.1094L28.4989 30.2089C28.617 29.0281 28.7582 27.4273 28.9225 25.4093L27.9258 25.3281L26.9291 25.247C26.7652 27.2602 26.6252 28.8469 26.5089 30.0099L27.5039 30.1094ZM27.9258 25.3281L28.9222 25.4123L29.1332 22.9162L28.1367 22.832L27.1403 22.7478L26.9293 25.2439L27.9258 25.3281ZM28.1367 22.832L29.1339 22.9076C29.2523 21.3441 29.3016 20.042 29.2771 19.0114L28.2773 19.0352L27.2776 19.059C27.3 19.997 27.2555 21.2262 27.1396 22.7565L28.1367 22.832ZM28.2773 19.0352H29.2773C29.2773 18.0402 29.2538 17.2349 29.2036 16.6318L28.207 16.7148L27.2105 16.7979C27.254 17.3198 27.2773 18.0614 27.2773 19.0352H28.2773ZM28.207 16.7148L29.2013 16.6083C29.1292 15.9348 29.0253 15.3464 28.8591 14.9145L27.9258 15.2734L26.9924 15.6324C27.0607 15.8098 27.1443 16.1824 27.2127 16.8214L28.207 16.7148ZM27.9258 15.2734L28.8656 14.9317C28.7262 14.5483 28.4899 14.1567 28.2048 13.768L27.3984 14.3594L26.592 14.9507C26.8226 15.2652 26.9379 15.483 26.986 15.6152L27.9258 15.2734ZM27.3984 14.3594L28.1667 13.7192C27.8966 13.3951 27.5369 13.0248 27.1007 12.6128L26.4141 13.3398L25.7274 14.0669C26.135 14.4518 26.4315 14.7611 26.6302 14.9996L27.3984 14.3594ZM26.4141 13.3398L27.1411 12.6532C26.6918 12.1775 26.1064 11.6718 25.4013 11.1369L24.7969 11.9336L24.1925 12.7303C24.8467 13.2266 25.3395 13.6584 25.687 14.0265L26.4141 13.3398ZM32.2148 24.8711L31.2151 24.8936C31.2623 26.9926 31.3688 28.6461 31.5417 29.8318L32.5312 29.6875L33.5208 29.5432C33.3656 28.4789 33.2612 26.9214 33.2146 24.8486L32.2148 24.8711ZM32.5312 29.6875L31.5454 29.8553C31.7359 30.9743 31.9485 31.8761 32.1977 32.5128L33.1289 32.1484L34.0601 31.784C33.8874 31.3426 33.7016 30.6039 33.5171 29.5197L32.5312 29.6875ZM33.1289 32.1484L32.2079 32.5381C32.4774 33.175 32.8953 33.8953 33.6137 34.1716L33.9727 33.2383L34.3316 32.3049C34.4057 32.3334 34.3961 32.359 34.3239 32.2658C34.2537 32.175 34.1585 32.0156 34.0499 31.7588L33.1289 32.1484ZM33.9727 33.2383V34.2383C34.6931 34.2383 35.3918 33.9394 36.0391 33.5078L35.4844 32.6758L34.9297 31.8437C34.452 32.1622 34.1428 32.2383 33.9727 32.2383V33.2383ZM35.4844 32.6758L36.0624 33.4918C36.7535 33.0023 37.3832 32.3031 37.965 31.4431L37.1367 30.8828L36.3084 30.3225C35.8121 31.0563 35.3403 31.5524 34.9064 31.8598L35.4844 32.6758ZM37.1367 30.8828L37.9537 31.4595C38.5784 30.5745 39.1188 29.4964 39.5855 28.2436L38.6484 27.8945L37.7114 27.5454C37.2875 28.6833 36.8201 29.5974 36.3198 30.3061L37.1367 30.8828ZM38.6484 27.8945L39.5794 28.2596C40.084 26.973 40.4403 25.4969 40.6593 23.8421L39.668 23.7109L38.6766 23.5797C38.4737 25.1125 38.1504 26.4254 37.7175 27.5294L38.6484 27.8945ZM39.668 23.7109L40.6593 23.8421C40.883 22.152 40.8282 20.6081 40.4578 19.2322L39.4922 19.4922L38.5266 19.7522C38.8124 20.8138 38.8748 22.0824 38.6766 23.5797L39.668 23.7109ZM39.4922 19.4922L40.4578 19.2322C40.1095 17.9386 39.6385 16.8148 39.0271 15.8844L38.1914 16.4336L37.3557 16.9828C37.8224 17.693 38.2186 18.6083 38.5266 19.7522L39.4922 19.4922ZM38.1914 16.4336L39.0341 15.8952C38.4556 14.9898 37.8289 14.2525 37.1391 13.7352L36.5391 14.5352L35.9391 15.3352C36.3743 15.6616 36.8491 16.1899 37.3487 16.972L38.1914 16.4336ZM36.5391 14.5352L37.1598 13.7511C36.8518 13.5073 36.5525 13.3002 36.2675 13.1498C36.0003 13.0087 35.6531 12.8672 35.2734 12.8672V13.8672V14.8672C35.175 14.8672 35.1794 14.837 35.334 14.9186C35.4709 14.9908 35.6638 15.1177 35.9184 15.3192L36.5391 14.5352ZM35.2734 13.8672V12.8672C34.7406 12.8672 34.2404 13.0241 33.8064 13.3397L34.3945 14.1484L34.9827 14.9572C35.0643 14.8978 35.15 14.8672 35.2734 14.8672V13.8672ZM34.3945 14.1484L33.8577 13.3048C33.4338 13.5745 32.9759 14.0959 32.5121 14.6989L33.3047 15.3086L34.0973 15.9183C34.571 15.3026 34.8396 15.0505 34.9314 14.9921L34.3945 14.1484ZM33.3047 15.3086L32.491 14.7274C32.1687 15.1786 31.9191 15.7611 31.7161 16.4208L32.6719 16.7148L33.6277 17.0089C33.7997 16.4498 33.972 16.0949 34.1184 15.8898L33.3047 15.3086ZM32.6719 16.7148L31.7152 16.4237C31.5286 17.0367 31.3792 17.8118 31.2585 18.7289L32.25 18.8594L33.2415 18.9898C33.3552 18.1257 33.487 17.4711 33.6285 17.006L32.6719 16.7148ZM32.25 18.8594L31.2585 18.7289C31.1314 19.6952 31.0973 20.904 31.1451 22.338L32.1445 22.3047L33.144 22.2714C33.098 20.8929 33.1342 19.8048 33.2415 18.9898L32.25 18.8594ZM32.1445 22.3047L31.1449 22.3321L31.2152 24.8985L32.2148 24.8711L33.2145 24.8437L33.1442 22.2773L32.1445 22.3047Z" fill="black" mask="url(#path-1-outside-1_1_2)"/>
</g>
<defs>
<clipPath id="clip0_1_2">
<rect width="48" height="48" fill="white"/>
</clipPath>
</defs>
</svg>
