<?xml version='1.0' encoding='utf-8'?>
<svg xmlns="http://www.w3.org/2000/svg" viewBox="0 0 1024 1024"> <path d="m136.13 901.31 39.339-22.013c1.469 3.487 1.747 8.131 2.625 11.86l2.071 9.877-31.381 0.938c-3.505 0.06-9.549 0.956-12.654-0.662z" fill="#F6BB66"/> <path d="m882.01 766.06 19.31 0.165 11.559 0.291c0.124 6.079 1.323 14.035-3.408 18.739-2.41 2.397-6.444 3.256-9.712 3.442l-12.374 113.22-105.23-0.104-0.809-1.223-0.646-3.601-4.703-36.027-7.228-53.987-1.234-11.059c-0.234-2.469-0.174-4.969-1.513-7.127-2.28-0.468-4.933-0.734-6.777-2.282-2.527-2.122-3.781-5.678-3.854-8.896-0.07-3.089 0.766-7.692 3.204-9.859 0.928-0.824 1.986-1.212 3.21-1.349 3.731-0.42 7.825 0.025 11.602 0.049l19.185-0.278 10.445-0.014 3.512 0.171 5.442 4e-3 2.538-0.027 12.872-0.112 1.619 0.182 12.562-0.134 15.749-1e-3 3.237-0.025c7.011 0.058 14.475 0.606 21.441-0.155z" fill="#D0403B"/> <path d="m882.01 766.06 19.31 0.165 11.559 0.291c0.124 6.079 1.323 14.035-3.408 18.739-2.41 2.397-6.444 3.256-9.712 3.442-5.409-1.63-12.684-0.694-18.4-0.689l-31.508 2e-3 -57.097 0.056-17.506 0.091c-2.91 0.038-6.458-0.212-9.225 0.629-2.28-0.468-4.933-0.734-6.777-2.282-2.527-2.122-3.781-5.678-3.854-8.896-0.07-3.089 0.766-7.692 3.204-9.859 0.928-0.824 1.986-1.212 3.21-1.349 3.731-0.42 7.825 0.025 11.602 0.049l19.185-0.278 10.445-0.014 3.512 0.171 5.442 4e-3 2.538-0.027 12.872-0.112 1.619 0.182 12.562-0.134 15.749-1e-3 3.237-0.025c7.011 0.058 14.475 0.606 21.441-0.155z" fill="#E85E58"/> <path d="m768.77 806.97 103.16 0.058c0.49 3.043-0.805 7.576-1.38 10.662-3.086 16.575-7.407 34.052-17.478 47.911-10.861 14.945-28.615 26.733-47.089 29.575l-25.284 1.808-4.703-36.027-7.228-53.987z" fill="#E85E58"/> <path d="m85.717 916.97c3.4226 0.883 8.8441 0.125 12.501 0.122l35.169-8e-3 159.25-0.052 648.11 0.029 0.082 1.691c-0.122 6.23-2.384 10.494-6.924 14.627-3.873 3.527-8.957 4.651-14.039 4.933-14.906 0.825-30.239 0.167-45.19 0.175l-87.397 0.026h-267.77l-277.29 1e-3 -90.814-9e-3 -45.237-0.069c-5.758-0.296-11.999-3.064-15.801-7.422-3.4249-3.925-5.0262-8.867-4.6404-14.044z" fill="#E09343"/> <path d="m245.68 861.97 81.367-1.534 7.247 2.849c0.598 5.605 0.224 11.572 0.203 17.224-0.052 3.489-0.392 7.33 0.322 10.743l0.134 0.664c0.756 3.435 2.88 5.881 5.179 8.394 2.892 1.823 4.767 2.552 8.196 2.641l24.156-0.313 49.236-0.021 169.98-5e-3 64.434 0.019 10.862 0.084c2.219 0.084 4.92 0.501 7.076-0.07 1.35-0.357 2.389-1.171 3.55-1.893l0.747-0.435c1.511-1.677 3.157-3.437 4.003-5.565 3.569-8.968-0.444-20.645 1.529-30.022l12.506-4.08c8.564 0.967 17.831 0.179 26.471 0.182l53.114 0.13 4.703 36.027 0.646 3.601 0.809 1.223 105.23 0.104c7.331-0.639 14.757-0.432 22.113-0.586 5.29-0.112 11.072-0.86 16.277 0.174 2.81 0.558 5.373 1.849 7.592 3.645 4.026 3.258 5.882 7.07 7.371 11.911l-648.11-0.029-159.25 0.052-35.169 8e-3c-3.6573 3e-3 -9.0788 0.761-12.501-0.122 0.3409-2.317 1.1786-4.554 2.3199-6.603 2.1734-3.903 6.3993-7.163 10.697-8.311l0.7657-0.195c4.421-1.173 9.202-0.943 13.75-0.849 7.63 0.156 15.249 0.69 22.88 0.302 3.105 1.618 9.149 0.722 12.654 0.662l31.381-0.938 42.635 0.654c4.607 0.048 10.447 0.917 14.885 0.115 1.962-5.521 2.635-12.033 3.778-17.805 1.439-7.263 3.361-14.692 4.221-22.032z" fill="#F0A967"/> <path d="m245.68 861.97 81.367-1.534 7.247 2.849c0.598 5.605 0.224 11.572 0.203 17.224-0.052 3.489-0.392 7.33 0.322 10.743l0.134 0.664c0.756 3.435 2.88 5.881 5.179 8.394-4.412 1.862-10.935 1.341-15.711 1.436l-40.425-0.262-26.349 0.305-19.966 0.018c1.962-5.521 2.635-12.033 3.778-17.805 1.439-7.263 3.361-14.692 4.221-22.032z" fill="#F6BB66"/> <path d="m696.42 860.65c8.564 0.967 17.831 0.179 26.471 0.182l53.114 0.13 4.703 36.027 0.646 3.601-0.617 0.851-69.284-0.31-19.398 0.236c-4.326 0.07-9.572 0.477-13.673-1.05 1.511-1.677 3.157-3.437 4.003-5.565 3.569-8.968-0.444-20.645 1.529-30.022l12.506-4.08z" fill="#F6BB66"/> <path d="m73.749 640.74 196.22-141.91 0.039 161.42 0.014 49.597c5e-3 8.185-0.636 16.917 0.187 25.028 0.481 4.751 2.234 10.088 5.749 13.477l0.492 0.456-12.15 50.729c-0.132 0.883-0.116 2.403-0.686 3.06-0.927 0.66-1.133 1.195-1.569 2.198-0.915 2.109-2.16 4.356-4.246 5.469l-0.871-0.145c-0.212 7.594-3.446 16.453-5.278 23.884l-5.969 27.968c-0.86 7.34-2.782 14.769-4.221 22.032-1.143 5.772-1.816 12.284-3.778 17.805-4.438 0.802-10.278-0.067-14.885-0.115l-42.635-0.654-2.071-9.877c-0.878-3.729-1.156-8.373-2.625-11.86-4.367-19.316-6.637-39.53-12.868-58.366l-3.121-7.231c-0.544-1.153-0.884-2.372-1.26-3.588-2.876-6.086-7.937-11.52-11.912-16.927l-21.292-30.433c-14.235-22.188-26.375-46.688-35.46-71.428l-15.807-50.586z" fill="#81CECB"/> <path d="m173.87 645.55c2.36-0.112 5.661 0.088 7.882 0.983 4.544 1.832 8.466 5.526 10.282 10.096 1.664 4.185 1.634 9.088-0.155 13.234-2.587 5.996-7.349 8.262-13.108 10.55l-4.769-0.016c-4.341-0.558-8.865-3.301-11.349-6.888-2.696-3.892-4.265-9.135-3.395-13.86l0.129-0.647c0.277-1.462 0.636-2.686 1.301-4.031 2.762-5.582 7.644-7.532 13.182-9.421z" fill="#AAD8D9"/> <path d="m158.22 810.11c0.332-2.177 0.468-3.681-0.798-5.614-0.96-1.466-0.05-6.093 0.116-8.014l10.988 0.025c0.149-2.5 0.077-5.509 0.86-7.886 0.858-2.606 3.142-4.676 5.598-5.79 1.282-0.58 2.617-0.995 4.016-1.154 9.266-1.054 18.942-0.22 28.263-0.213l22.609 0.021c3.999 9e-3 8.936-0.616 12.651 0.92 1.824 0.754 3.73 2.614 4.449 4.469l0.189 0.536c1.048 2.876 0.828 6.098 0.85 9.124 2.68-0.117 8.314-0.995 10.708 0.115l1.781 0.918 1.75-1.447 1 0.313c0.143 0.832 0.344 1.52 0.686 2.287l0.367 0.81c-0.132 0.883-0.116 2.403-0.686 3.06-0.927 0.66-1.133 1.195-1.569 2.198-0.915 2.109-2.16 4.356-4.246 5.469l-0.871-0.145c-10.21-0.277-94.39-0.936-96.467 0.384l-0.06 0.672c-0.137 0.989-0.479 1.655-0.924 2.53-0.544-1.153-0.884-2.372-1.26-3.588z" fill="#39679F"/> <path d="m159.48 813.7c0.445-0.875 0.787-1.541 0.924-2.53l0.06-0.672c2.077-1.32 86.257-0.661 96.467-0.384-0.212 7.594-3.446 16.453-5.278 23.884l-5.969 27.968c-0.86 7.34-2.782 14.769-4.221 22.032-1.143 5.772-1.816 12.284-3.778 17.805-4.438 0.802-10.278-0.067-14.885-0.115l-42.635-0.654-2.071-9.877c-0.878-3.729-1.156-8.373-2.625-11.86-4.367-19.316-6.637-39.53-12.868-58.366l-3.121-7.231z" fill="#C3E1E2"/> <path d="m162.6 820.93 70.256 0.568c-7.543 25.064-16.52 51.788-41.138 65.076-4.101 2.213-9.039 3.82-13.625 4.582-0.878-3.729-1.156-8.373-2.625-11.86-4.367-19.316-6.637-39.53-12.868-58.366z" fill="#DEE5F1"/> <path d="m67.353 461.67 96.17-70.232 137.98-100.44 47.031-34.555 14.958-11.101c2.327-1.761 4.5-3.808 6.972-5.368 1.2-0.756 2.528-1.175 3.879-1.57-2.299 14.716-3.393 28.975-3.471 43.878l0.871 15.346 1.741 12.639 0.091 8.813c0.03 4.768 0.527 10.296-0.331 14.967-0.887 7.534-1.803 15.095-4.198 22.332-1.999 6.041-5.163 11.792-7.884 17.54-4.206 8.883-7.977 17.868-10.498 27.387l-41.57-0.304c-8.104-0.02-17.263-1.457-25.091 0.93l-0.632 0.189c-4.669 1.477-9.038 5.338-11.148 9.742-1.054 2.2-1.824 4.657-2.11 7.083-0.923 7.826-0.111 16.718-0.115 24.64l-0.023 55.247-196.22 141.91-11.322-82.509-1.1876-34.617 1.836-27.48 4.2781-34.465z" fill="#81CECB"/> <path d="m63.075 496.13c2.4941-0.802 4.5694-2.608 6.6747-4.125l10.807-7.901 40.443-29.595 168.35-123.16 55.831-40.915c8.348-6.083 16.652-12.948 25.403-18.384-0.102 3.196-0.487 6.683 0.183 9.816l0.098 0.41 0.871 15.346c-2.697 0.715-4.489 2.359-6.653 3.99l-9.405 6.903-36.071 26.232-118.86 86.855-26.565 18.996-56.697 42.147-56.249 40.867 1.836-27.48z" fill="#AAD8D9"/> <path d="m371.74 297.62 1.741 12.639 0.091 8.813c0.03 4.768 0.527 10.296-0.331 14.967-6.104 1.505-11.414 5.684-16.404 9.381l-18.666 14.105-27.444 19.807-142.02 103.52-106.29 77.37-1.1876-34.617 56.249-40.867 56.697-42.147 26.565-18.996 118.86-86.855 36.071-26.232 9.405-6.903c2.164-1.631 3.956-3.275 6.653-3.99z" fill="#81CECB"/> <path d="m62.427 558.23 106.29-77.37 142.02-103.52 27.444-19.807 18.666-14.105c4.99-3.697 10.3-7.876 16.404-9.381-0.887 7.534-1.803 15.095-4.198 22.332-1.999 6.041-5.163 11.792-7.884 17.54-4.206 8.883-7.977 17.868-10.498 27.387l-41.57-0.304c-8.104-0.02-17.263-1.457-25.091 0.93l-0.632 0.189c-4.669 1.477-9.038 5.338-11.148 9.742-1.054 2.2-1.824 4.657-2.11 7.083-0.923 7.826-0.111 16.718-0.115 24.64l-0.023 55.247-196.22 141.91-11.322-82.509z" fill="#AAD8D9"/> <path d="m67.353 461.67 14.912-61.198c5.3779-17.451 12.564-34.646 20.214-51.217 41.608-90.131 111.71-165.12 199.48-211.6 82.186-43.528 178.26-59.686 270.28-47.181 25.804 3.5065 51.521 9.6623 76.389 17.308l-20.048 13.595-32.213 21.618-10.231 6.79c-2.092 1.347-4.443 2.561-6.082 4.459-4.799-2.199-9.421-3.724-14.523-5.002-3.557-0.892-7.241-0.834-10.885-0.961-0.96-0.034-3.51 0.067-4.283-0.315-2.128-1.051-4.495-3.666-6.491-5.127-4.405-3.222-9.802-5.974-14.837-8.077-28.32-11.829-65.956-1.701-91.092 13.613-25.39 15.47-45.714 37.934-56.43 65.877-3.014 7.86-4.973 16.041-7.168 24.15-1.351 0.395-2.679 0.814-3.879 1.57-2.472 1.56-4.645 3.607-6.972 5.368l-14.958 11.101-47.031 34.555-137.98 100.44-96.17 70.232z" fill="#AAD8D9"/> <path d="m211.89 273.56c2.795-0.104 5.41-0.265 8.098 0.648l0.761 0.276 2.057 0.777c5.264 2.385 9.545 6.543 11.48 12.052 1.656 4.713 1.223 10.11-0.988 14.589-2.894 5.864-7.912 9.048-13.897 11.076-3.904 0.759-8.531 0.421-12.198-1.241-5.787-2.622-9.133-7.326-11.162-13.186-1.728-4.989-0.038-11.116 2.344-15.587 3.004-5.639 7.762-7.599 13.505-9.404z" fill="#81CECB"/> <path d="m648.62 107.78c34.635 11.966 69.023 25.35 99.808 45.592l19.303 12.384 18.805 14.029 17.675 14.035c16.417 14.031 31.562 29.439 45.864 45.613 11.607 13.126 22.81 26.737 32.459 41.381l18.236 30.312c2.502 4.245 5.661 8.741 7.689 13.197l-164.49 117.97c0.068-9.268-0.264-17.316-5.356-25.345-6.038-9.522-15.414-14.631-26.168-17.003-5.09-1.048-10.849-0.643-16.047-0.649l-33.801-0.174-22.066-74.336c-0.047-1.992 0.739-4.24 1.065-6.225 0.572-3.488 0.386-6.51-0.287-9.965-0.282-1.259-0.758-2.451-1.203-3.659 1.452-9.253 3.361-17.794 3.536-27.206l-0.85-20.397-4.871-23.504-0.97-3.407c-9.233-30.269-28.33-60.934-56.908-76.181 1.639-1.898 3.99-3.112 6.082-4.459l10.231-6.79 32.213-21.618 20.048-13.595z" fill="#C3E1E2"/> <path d="m702.11 308.58c4.551-0.168 8.246-8e-3 12.424 2.121 5.307 2.705 9.034 7.901 10.585 13.589 1.254 4.602-0.36 10.044-2.77 13.976-3.006 4.906-7.765 7.822-13.239 9.185-4.273 0.707-7.84 0.269-11.686-1.798-5.014-2.697-9.188-7.439-10.814-12.946l-0.198-0.703c-1.073-3.74-0.486-7.787 0.93-11.341 2.717-6.823 8.389-9.495 14.768-12.083z" fill="#AAD8D9"/> <path d="m786.54 179.78 17.675 14.035-47.375 33.516-69.025 49.356-25.312 17.921c-6.92 4.932-13.524 10.214-21.187 13.983-0.282-1.259-0.758-2.451-1.203-3.659 1.452-9.253 3.361-17.794 3.536-27.206l0.452 5.229c1.105 0.066 2.006-0.833 2.9-1.455l30.042-22.381 76.336-55.377 33.161-23.962z" fill="#81CECB"/> <path d="m748.43 153.37 19.303 12.384 18.805 14.029-33.161 23.962-76.336 55.377-30.042 22.381c-0.894 0.622-1.795 1.521-2.9 1.455l-0.452-5.229-0.85-20.397-4.871-23.504 110.5-80.458z" fill="#C3E1E2"/> <path d="m748.43 153.37 19.303 12.384-30.256 22.083-67.655 49.144c-8.536 6.275-17.74 12.056-25.963 18.694-0.549 0.443-0.753 1.045-1.062 1.657l-4.871-23.504 110.5-80.458z" fill="#81CECB"/> <path d="m882.54 280.81 18.236 30.312c2.502 4.245 5.661 8.741 7.689 13.197l-164.49 117.97c0.068-9.268-0.264-17.316-5.356-25.345-6.038-9.522-15.414-14.631-26.168-17.003l170.09-119.13z" fill="#81CECB"/> <path d="m648.62 107.78c34.635 11.966 69.023 25.35 99.808 45.592l-110.5 80.458-0.97-3.407c-9.233-30.269-28.33-60.934-56.908-76.181 1.639-1.898 3.99-3.112 6.082-4.459l10.231-6.79 32.213-21.618 20.048-13.595z" fill="#C3E1E2"/> <path d="m662.6 399.12 33.801 0.174c5.198 6e-3 10.957-0.399 16.047 0.649 10.754 2.372 20.13 7.481 26.168 17.003 5.092 8.029 5.424 16.077 5.356 25.345l0.397 85.194 0.173 22.794 0.098 28.912-0.18 23.405c17.036 10.279 28.638 25.236 41.366 40.085 0.776 1.644 1.597 3.647 1.464 5.495-0.464 2.779 0.388 5.012 0.963 7.694 1.843 14.927 4.52 29.372 7.841 44.032 1.095 4.83 1.78 10.022 3.715 14.599 0.122 1.991 0.094 4.004 0.84 5.876l4.539 16.221c1.119 3.734 2.992 7.815 2.897 11.737l-8e-3 0.377c-0.085 1.816 0.21 4.307-0.791 5.806 1.772 3.7 3.801 7.81 4.705 11.813l-5.442-4e-3 -3.512-0.171-10.445 0.014-19.185 0.278c-3.777-0.024-7.871-0.469-11.602-0.049-1.224 0.137-2.282 0.525-3.21 1.349-2.438 2.167-3.274 6.77-3.204 9.859 0.073 3.218 1.327 6.774 3.854 8.896 1.844 1.548 4.497 1.814 6.777 2.282 1.339 2.158 1.279 4.658 1.513 7.127l1.234 11.059 7.228 53.987-53.114-0.13c-8.64-3e-3 -17.907 0.785-26.471-0.182l-12.506 4.08c-0.88-7.793-0.48-15.668 0.049-23.471 0.664-10.998 0.086-22.336 0.091-33.379 4e-3 -9.982 0.761-20.648-0.34-30.513-0.232-1.186-0.18-2.461-0.22-3.67 0.951-3.813 0.534-8.326 0.534-12.252l3e-3 -21.609c-1e-3 -13.505 0.651-27.368-0.044-40.834-0.094-1.829-0.532-3.236-1.256-4.906-1.105-1.911-2.313-3.783-3.898-5.334-4.523-4.428-11.027-3.444-16.768-3.386l-14.673 0.151-12.821 6e-3 -70.622-0.039-35.374 0.073 25.189-118.8-1.982-1.577-35.12-38.635 29.136-59.89 24.443 14.354c6.248 2.735 13.136 6.553 18.736 10.419l0.312 0.294c7.217 1.734 14.226 6.959 21.071 9.896 10.058-6.748 20.111-12.389 28.821-21.001 14.209-14.048 23.131-32.33 25.072-52.287 0.476-4.884 0.297-9.952 0.33-14.862l-0.366-3.494-1.609-10.863z" fill="#104581"/> <path d="m683.49 773.7c7.931 1.307 15.377 6.536 22.136 10.661 2.836 1.731 7.121 3.732 8.823 6.644 0.341 0.582 0.33 0.683 0.466 1.25l-0.914 1.29c-1.712 0.116-3.905-1.725-5.373-2.684-8.002-5.229-15.985-9.981-24.918-13.491-0.232-1.186-0.18-2.461-0.22-3.67z" fill="#112859"/> <path d="m634.57 685.53 21.073-88.047 5.661-23.124c0.758-3.123 1.063-7.045 2.494-9.857 0.173 3.965-0.659 7.911-1.147 11.838l-3.018 22.049-7.188 51.11c-1.722 11.874-4.125 24.081-5.054 36.025l-12.821 6e-3z" fill="#112859"/> <path d="m693.69 575.88c4.558 3.571 6.937 7.732 9.829 12.62l8.211 14.028c2.867 5.379 5.509 11.339 9.219 16.185 0.929 23.75 5.65 47.617 15.374 69.4 2.344 5.249 5.297 10.213 7.85 15.359l8.563 13.432c-2.615 3.374-5.853 5.93-9.132 8.617 0.504 8.584 1.888 20.689-3.559 27.984l-46.355-177.62z" fill="#E09343"/> <path d="m743.6 725.52c-0.252-7.196-0.638-14.939 0.569-22.049l8.563 13.432c-2.615 3.374-5.853 5.93-9.132 8.617z" fill="#C3E1E2"/> <path d="m752.73 716.9c1.688 2.725 4.856 9.186 7.421 10.807l5.477 7.863c7.73 11.537 16.87 21.128 26.963 30.598l-19.185 0.278c-3.777-0.024-7.871-0.469-11.602-0.049-1.224 0.137-2.282 0.525-3.21 1.349-2.438 2.167-3.274 6.77-3.204 9.859 0.073 3.218 1.327 6.774 3.854 8.896 1.844 1.548 4.497 1.814 6.777 2.282 1.339 2.158 1.279 4.658 1.513 7.127l1.234 11.059 7.228 53.987-53.114-0.13c-8.64-3e-3 -17.907 0.785-26.471-0.182l-12.506 4.08c-0.88-7.793-0.48-15.668 0.049-23.471 7.056-1.963 13.949-4.642 20.896-6.961 11.081-3.699 25.575-6.324 34.423-14.273 4.765-4.28 6.714-9.569 10.445-14.541l0.385-0.505-10.064-51.472c5.447-7.295 4.063-19.4 3.559-27.984 3.279-2.687 6.517-5.243 9.132-8.617z" fill="#81CECB"/> <path d="m750.11 804.98c1.841 10.708-0.128 23.486-6.549 32.435-8.053 11.225-24.369 14.663-36.778 18.991-3.467 1.209-7.216 2.318-10.365 4.245l-12.506 4.08c-0.88-7.793-0.48-15.668 0.049-23.471 7.056-1.963 13.949-4.642 20.896-6.961 11.081-3.699 25.575-6.324 34.423-14.273 4.765-4.28 6.714-9.569 10.445-14.541l0.385-0.505z" fill="#112859"/> <path d="m720.95 618.71 1.119-28.969c4.162 1.651 7.75 3.744 11.492 6.19 3.511 2.288 7.122 4.853 10.905 6.664 17.036 10.279 28.638 25.236 41.366 40.085 0.776 1.644 1.597 3.647 1.464 5.495-0.464 2.779 0.388 5.012 0.963 7.694 1.843 14.927 4.52 29.372 7.841 44.032 1.095 4.83 1.78 10.022 3.715 14.599 0.122 1.991 0.094 4.004 0.84 5.876l4.539 16.221c1.119 3.734 2.992 7.815 2.897 11.737l-8e-3 0.377c-0.085 1.816 0.21 4.307-0.791 5.806 1.772 3.7 3.801 7.81 4.705 11.813l-5.442-4e-3 -3.512-0.171-10.445 0.014c-10.093-9.47-19.233-19.061-26.963-30.598l-5.477-7.863c-2.565-1.621-5.733-8.082-7.421-10.807l-8.563-13.432c-2.553-5.146-5.506-10.11-7.85-15.359-9.724-21.783-14.445-45.65-15.374-69.4z" fill="#0C8559"/> <path d="m760.16 727.71c2.204 0.098 3.221 0.934 5.026 2.106l0.609 0.379c4.266 2.689 8.158 6.412 11.838 9.848l-1.559 1.703c-3.417-2.802-6.226-4.757-10.437-6.173l-5.477-7.863z" fill="#025356"/> <path d="m777.63 740.04 18.405 15.95c3.35 2.879 8.508 6.34 10.519 10.335l-3.512-0.171-26.971-24.411 1.559-1.703z" fill="#054C57"/> <path d="m765.63 735.57c4.211 1.416 7.02 3.371 10.437 6.173l26.971 24.411-10.445 0.014c-10.093-9.47-19.233-19.061-26.963-30.598z" fill="#0C8559"/> <path d="m807.29 754.52-83.607-159.53c-0.855-1.361-1.391-2.734-1.966-4.227 2.679 1.813 4.559 4.076 6.396 6.734 7.846 11.356 14.344 24.272 21.056 36.345l21.387 38.313 20.777 42.537 10.529 21.737c1.855 3.827 3.532 8.097 5.982 11.572l0.245 0.336-8e-3 0.377c-0.085 1.816 0.21 4.307-0.791 5.806z" fill="#112859"/> <path d="m545.79 466.67 24.443 14.354c6.248 2.735 13.136 6.553 18.736 10.419l0.312 0.294 29.132 90.102c-4.465 4.602-9.173 5.113-15.245 5.764l0.477 0.585c1.321 1.498 3.948 2.34 5.802 3.011 3.865 1.401 8.002 2.598 11.651 4.486l-12.754 3.514c-1.656 0.517-3.467 0.811-4.897 1.829l15.327 2.914-54.833 81.554-35.374 0.073 25.189-118.8-1.982-1.577-35.12-38.635 29.136-59.89z" fill="#E85E58"/> <path d="m603.45 601.02c-3.44-0.28-7.333-1.783-10.693-2.657l-20.512-5.434 30.926-5.334 0.477 0.585c1.321 1.498 3.948 2.34 5.802 3.011 3.865 1.401 8.002 2.598 11.651 4.486l-12.754 3.514c-1.656 0.517-3.467 0.811-4.897 1.829z" fill="#112859"/> <path d="m545.79 466.67 24.443 14.354-10.911 57.516c-1.757 9.256-2.886 19.249-5.566 28.232l-1.982-1.577-35.12-38.635 29.136-59.89z" fill="#FEFEFE"/> <path d="m662.6 399.12 33.801 0.174c5.198 6e-3 10.957-0.399 16.047 0.649 10.754 2.372 20.13 7.481 26.168 17.003 5.092 8.029 5.424 16.077 5.356 25.345l0.397 85.194 0.173 22.794 0.098 28.912-0.18 23.405c-3.783-1.811-7.394-4.376-10.905-6.664-3.742-2.446-7.33-4.539-11.492-6.19l-1.119 28.969c-3.71-4.846-6.352-10.806-9.219-16.185l-8.211-14.028c-2.892-4.888-5.271-9.049-9.829-12.62l-5.574-14.936c-4.134-7.687-6.791-15.852-12.085-22.954-2.897-3.886-6.338-7.249-10.378-9.949-6.131-4.097-13.447-6.857-20.124-9.949l-35.172-16.463c10.058-6.748 20.111-12.389 28.821-21.001 14.209-14.048 23.131-32.33 25.072-52.287 0.476-4.884 0.297-9.952 0.33-14.862l-0.366-3.494-1.609-10.863z" fill="#F6BB66"/> <path d="m662.6 399.12 33.801 0.174c5.198 6e-3 10.957-0.399 16.047 0.649 10.754 2.372 20.13 7.481 26.168 17.003 5.092 8.029 5.424 16.077 5.356 25.345l0.397 85.194 0.173 22.794 0.098 28.912-0.18 23.405c-3.783-1.811-7.394-4.376-10.905-6.664 0.413-2.114 0.407-4.152 0.422-6.292l0.016-103.71-0.01-29.909c-9e-3 -6.467 0.42-13.291-0.698-19.681-1.083-6.181-4.762-12.62-9.16-17.026-3.658-3.665-8.243-6.515-13.228-8.014-6.053-1.82-13.275-1.304-19.546-1.314l-27.142-5e-3 -1.609-10.863z" fill="#E09343"/> <path d="m664.58 413.48 0.34 0.792c0.275 0.627 0.534 1.059 0.916 1.636 3.423 5.174 5.639 12.607 7.637 18.503 11.873 35.043 15.443 71.351 15.498 108.19l-0.04 12.374c-0.011 1.374 0.252 3.558-0.188 4.852-0.218 0.639-0.277 0.654-0.627 1.114-4.134-7.687-6.791-15.852-12.085-22.954-2.897-3.886-6.338-7.249-10.378-9.949-6.131-4.097-13.447-6.857-20.124-9.949l-35.172-16.463c10.058-6.748 20.111-12.389 28.821-21.001 14.209-14.048 23.131-32.33 25.072-52.287 0.476-4.884 0.297-9.952 0.33-14.862z" fill="#E09343"/> <path d="m269.97 498.83 0.023-55.247c4e-3 -7.922-0.808-16.814 0.115-24.64 0.286-2.426 1.056-4.883 2.11-7.083 2.11-4.404 6.479-8.265 11.148-9.742l0.632-0.189c7.828-2.387 16.987-0.95 25.091-0.93l41.57 0.304-1.937 10.796-0.318 4.148c0.322 26.409 7.855 49.119 27.129 67.886l21.657 18.733c7.516-1.905 15.505-5.428 22.704-8.395 1.939-2.328 3.93-3.172 6.755-4.131 6.12-2.025 11.447-3.782 16.848-7.421l15.751-17.246 2.303 0.537c-0.273 6.489 2.517 13.5 5.029 19.352 6.511 15.172 14.482 26.999 24.973 39.762l13.54 15.48 11.562-14.247 35.12 38.635 1.982 1.577-25.189 118.8c-7.261-1.068-15.02 0.867-22.265-0.543-2.544-0.234-3.357-2.079-5.793-1.772l-0.464 0.386c-3.383 2.737-6.909 2.317-11.043 1.967l-8.27-0.135-31.239-0.015-68.698-0.327-20.682 0.323c-6.482-0.535-13.888-1.139-19.214 3.429-1.69 1.449-3.103 3.166-4.232 5.08-2.011 2.903-1.858 6.342-2.122 9.748-0.886 11.415 0.038 22.486 0.162 33.888l-0.166 26.881-2e-3 6.85-0.496 77.904c0.089 4.394-0.457 9.77 0.252 14.054l-7.247-2.849-81.367 1.534 5.969-27.968c1.832-7.431 5.066-16.29 5.278-23.884l0.871 0.145c2.086-1.113 3.331-3.36 4.246-5.469 0.436-1.003 0.642-1.538 1.569-2.198 0.57-0.657 0.554-2.177 0.686-3.06l12.15-50.729-0.492-0.456c-3.515-3.389-5.268-8.726-5.749-13.477-0.823-8.111-0.182-16.843-0.187-25.028l-0.014-49.597-0.039-161.42z" fill="#104581"/> <path d="m334.54 771.32c-12.673 0.952-24.464 3.826-36.569 7.579-4.413 1.368-9.219 3.797-13.723 4.464l-0.302-0.868c2.217-2.804 5.371-4.202 8.5-5.772 13.135-6.59 27.664-9.95 42.096-12.253l-2e-3 6.85z" fill="#112859"/> <path d="m405.76 588.02 27.298 4.775-18.999 8.371c-2.903-1.489-6.61-1.223-9.839-1.387l-16.657-0.807c0.497-0.728 2.089-1.457 2.887-1.937l10.298-5.626c1.728-0.947 3.382-2.275 5.012-3.389z" fill="#112859"/> <path d="m360.12 685.45c3.174-28.653-4.097-55.31-10.572-82.907l-13.554-58.042c-0.382-1.707-0.409-3.101-0.337-4.851l45.145 145.48-20.682 0.323z" fill="#112859"/> <path d="m256.93 810.12 0.871 0.145c2.086-1.113 3.331-3.36 4.246-5.469 0.436-1.003 0.642-1.538 1.569-2.198-0.69 5.053-0.942 9.762 0.098 14.788l1.046-0.417c2.586 1.584 4.473 3.934 7.239 5.574l0.714 0.435c7.452 4.48 16.171 7.647 24.203 10.982l37.129 15.273c0.089 4.394-0.457 9.77 0.252 14.054l-7.247-2.849-81.367 1.534 5.969-27.968c1.832-7.431 5.066-16.29 5.278-23.884z" fill="#81CECB"/> <path d="m263.72 817.38 1.046-0.417c2.586 1.584 4.473 3.934 7.239 5.574l0.714 0.435c7.452 4.48 16.171 7.647 24.203 10.982l37.129 15.273c0.089 4.394-0.457 9.77 0.252 14.054l-7.247-2.849c-3.182-2.463-7.852-3.756-11.551-5.395l-23.262-10.726c-5.941-2.722-12.343-4.966-17.752-8.711-6.241-4.321-9.401-10.947-10.771-18.22z" fill="#112859"/> <path d="m269.97 498.83 0.023-55.247c4e-3 -7.922-0.808-16.814 0.115-24.64 0.286-2.426 1.056-4.883 2.11-7.083 2.11-4.404 6.479-8.265 11.148-9.742l0.632-0.189c7.828-2.387 16.987-0.95 25.091-0.93l41.57 0.304-1.937 10.796-0.318 4.148c0.322 26.409 7.855 49.119 27.129 67.886l21.657 18.733c-7.569 2.037-15.126 4.981-22.391 7.922-12.145 4.917-24.938 11.082-34.753 19.923-3.114 2.804-6.277 5.818-8.383 9.485l-6.988 14.736c-11.269 30.063-19.044 60.858-26.35 92.078l-8.459 35.869-7.354 36.469-6.061 29.458-0.492-0.456c-3.515-3.389-5.268-8.726-5.749-13.477-0.823-8.111-0.182-16.843-0.187-25.028l-0.014-49.597-0.039-161.42z" fill="#F6BB66"/> <path d="m324.68 554.93c-0.703-1.444-1.281-2.831-1.485-4.438-1.224-9.609-1.069-19.98-1.705-29.692-1.234-18.827-2.318-38.204 3.036-56.551 4.443-15.224 13.949-29.647 23.524-42.115-0.054-2.007 0.107-3.898 0.359-5.889 0.322 26.409 7.855 49.119 27.129 67.886l21.657 18.733c-7.569 2.037-15.126 4.981-22.391 7.922-12.145 4.917-24.938 11.082-34.753 19.923-3.114 2.804-6.277 5.818-8.383 9.485l-6.988 14.736z" fill="#E09343"/> <path d="m269.97 498.83 0.023-55.247c4e-3 -7.922-0.808-16.814 0.115-24.64 0.286-2.426 1.056-4.883 2.11-7.083 2.11-4.404 6.479-8.265 11.148-9.742l0.632-0.189c7.828-2.387 16.987-0.95 25.091-0.93l41.57 0.304-1.937 10.796c-9.659-1.072-19.528-0.554-29.234-0.526-7.652 0.022-15.787-0.715-23.31 0.829-4.7 0.965-9.399 5.72-11.835 9.661-2.754 4.452-2.901 8.764-3.104 13.829l-0.048 56.687 0.275 152.47-0.041 50.781-0.279 13.21c-0.076 2.511-0.377 5.454 0.178 7.91 0.207 0.912 0.597 1.684 1.188 2.4l-6.061 29.458-0.492-0.456c-3.515-3.389-5.268-8.726-5.749-13.477-0.823-8.111-0.182-16.843-0.187-25.028l-0.014-49.597-0.039-161.42z" fill="#E09343"/> <path d="m443.5 482.92 15.751-17.246 2.303 0.537c-0.273 6.489 2.517 13.5 5.029 19.352 6.511 15.172 14.482 26.999 24.973 39.762l13.54 15.48 11.562-14.247 35.12 38.635 1.982 1.577-25.189 118.8c-7.261-1.068-15.02 0.867-22.265-0.543-2.544-0.234-3.357-2.079-5.793-1.772l-0.464 0.386c-3.383 2.737-6.909 2.317-11.043 1.967l-8.27-0.135-31.239-0.015-52.563-76.058 17.128-8.231 18.999-8.371-27.298-4.775-10.475-3.735 24.609-89.813c1.939-2.328 3.93-3.172 6.755-4.131 6.12-2.025 11.447-3.782 16.848-7.421z" fill="#E85E58"/> <path d="m443.5 482.92 15.751-17.246 2.303 0.537c-0.273 6.489 2.517 13.5 5.029 19.352 6.511 15.172 14.482 26.999 24.973 39.762-0.493 0.381-3.462 2.432-3.599 2.818l-31.547 24.809-1.106-0.345-11.804-69.687z" fill="#FEFEFE"/> <path d="m491.56 525.32 13.54 15.48 11.562-14.247 35.12 38.635 1.982 1.577-25.189 118.8c-7.261-1.068-15.02 0.867-22.265-0.543-2.544-0.234-3.357-2.079-5.793-1.772l-0.464 0.386c-3.383 2.737-6.909 2.317-11.043 1.967l-8.27-0.135-25.432-132.86 1.106 0.345 31.547-24.809c0.137-0.386 3.106-2.437 3.599-2.818z" fill="#DEE5F1"/> <path d="m487.96 528.14 0.139 13.81c-6.116 1.417-12.117 2.825-17.926 5.266-3.262 1.371-6.279 3.178-9.403 4.821-0.96 0.505-2.06 1.336-3.155 1.272-0.855-0.05-0.533 0.043-1.202-0.36l31.547-24.809z" fill="#C3E1E2"/> <path d="m505.1 540.8 11.562-14.247 35.12 38.635-0.237 0.384c-1.762-1.428-3.235-3.338-5.04-4.654-1.86-1.358-3.75-2.304-5.562-3.884l-11.362-10.808c-1.018-0.969-3.153-3.318-4.537-3.7-5.761-1.59-14.967 1.485-19.944-1.726z" fill="#C3E1E2"/> <path d="m489 685.6-0.602-127.56 24.471 0.489-0.362 126.36-6.207 0.138c-2.544-0.234-3.357-2.079-5.793-1.772l-0.464 0.386c-3.383 2.737-6.909 2.317-11.043 1.967z" fill="#FEFEFE"/> <path d="m500.71 633.75 2.039-0.2c1.534 1.072 1.538 1.163 2.13 2.95-0.362 1.522-0.426 1.559-1.63 2.571l-1.5 0.367c-1.48-0.724-1.743-0.799-2.589-2.188 0.193-1.658 0.57-2.226 1.55-3.5z" fill="#4E7BB0"/> <path d="m501.1 573.25c0.97-0.186 1.498-0.266 2.442 0.096 1.299 0.497 1.605 1.161 1.948 2.404-0.34 1.442-0.812 2.029-1.74 3.128l-2 0.579c-1.22-0.784-1.381-1.314-2.047-2.573 0.168-1.637 0.458-2.281 1.397-3.634z" fill="#4E7BB0"/> <path d="m908.46 324.32c4.864 7.886 8.608 16.298 12.429 24.716 5.927 13.056 11.35 26.229 16.031 39.788l5.623 18.723 5.943 22.945 7.977 46.005c6.883 55.678 3.174 111.03-9.625 165.59l-2.953 13.553 3.139-1.009 0.045-0.129 6.179-2.775 0.689 0.274-0.19 1.852c-2.904 21.178-10.389 42.559-21.871 60.621l-14.142 20.442c-2.309 7.21-6.144 13.104-9.765 19.661-2.127 3.852-4.023 8.117-6.649 11.65l-19.31-0.165c-6.966 0.761-14.43 0.213-21.441 0.155l-3.237 0.025-15.749 1e-3 -12.562 0.134-1.619-0.182-12.872 0.112-2.538 0.027c-0.904-4.003-2.933-8.113-4.705-11.813 1.001-1.499 0.706-3.99 0.791-5.806l8e-3 -0.377c0.095-3.922-1.778-8.003-2.897-11.737l-4.539-16.221c-0.746-1.872-0.718-3.885-0.84-5.876-1.935-4.577-2.62-9.769-3.715-14.599-3.321-14.66-5.998-29.105-7.841-44.032-0.575-2.682-1.427-4.915-0.963-7.694 0.133-1.848-0.688-3.851-1.464-5.495-12.728-14.849-24.33-29.806-41.366-40.085l0.18-23.405-0.098-28.912-0.173-22.794-0.397-85.194 164.49-117.97z" fill="#81CECB"/> <path d="m936.92 388.83 5.623 18.723 5.943 22.945-203.84 148.7-0.098-28.912-0.173-22.794 192.55-138.66z" fill="#C3E1E2"/> <path d="m936.92 388.83 5.623 18.723-198 142.73-0.173-22.794 192.55-138.66z" fill="#81CECB"/> <path d="m911.38 580.58c0.993-1.219 2.316-2.091 3.846-2.441l0.31 1.208 0.296 0.829c1.376 4.2 0.923 10.451 1.079 14.895 0.955 27.091-1.324 52.995-9.233 79.018l36.208-18.445 3.139-1.009 0.045-0.129 6.179-2.775 0.689 0.274-0.19 1.852c-2.904 21.178-10.389 42.559-21.871 60.621l-14.142 20.442c-2.309 7.21-6.144 13.104-9.765 19.661-2.127 3.852-4.023 8.117-6.649 11.65l-19.31-0.165c-6.966 0.761-14.43 0.213-21.441 0.155l-3.237 0.025-15.749 1e-3c1.508-6.573 4.682-12.98 6.626-19.492 3.881-12.996 5.802-25.462 7.546-38.84 0.492-1.552 0.198-3.887 0.208-5.545 0.196-2.233 0.82-4.401 0.956-6.615 0.51-8.284 0.244-16.796 0.187-25.099-0.049-7.13 0.022-14.153-1.242-21.199l0.093-3.797 0.276-0.26c13.934-24.614 30.971-49.197 55.146-64.82z" fill="#0C8559"/> <path d="m911.38 580.58c0.993-1.219 2.316-2.091 3.846-2.441l0.31 1.208-0.425 0.733c-1.213 2.173-1.827 4.782-2.822 7.089l-12.037 29.799-34.844 93.463c-3.03 8.304-5.455 16.74-8.874 24.914-1.461 3.491-3.056 7.475-5.285 10.516-0.055-0.369-0.196-0.735-0.165-1.106 0.194-2.354 2.424-6.421 3.294-8.782l12.693-34.491 44.309-120.9z" fill="#112859"/> <path d="m947.03 654.63 0.045-0.129 6.179-2.775 0.689 0.274-0.19 1.852c-2.904 21.178-10.389 42.559-21.871 60.621l-14.142 20.442c-2.309 7.21-6.144 13.104-9.765 19.661-2.127 3.852-4.023 8.117-6.649 11.65l-19.31-0.165c-6.966 0.761-14.43 0.213-21.441 0.155l-3.237 0.025c7.305-10.874 16.488-21.025 24.616-31.343l34.546-43.898 17.983-21c4.082-4.673 9.936-9.789 12.547-15.37z" fill="#0C8559"/> <path d="m882.01 766.06 35.724-31.146c-2.309 7.21-6.144 13.104-9.765 19.661-2.127 3.852-4.023 8.117-6.649 11.65l-19.31-0.165z" fill="#AAD8D9"/> <path d="m947.03 654.63 0.045-0.129 6.179-2.775 0.689 0.274-0.19 1.852c-5.888 4.811-10.868 11.425-16.019 17.056-18.442 20.163-35.188 41.993-51.942 63.564-8.31 10.698-15.936 21.84-25.217 31.744l-3.237 0.025c7.305-10.874 16.488-21.025 24.616-31.343l34.546-43.898 17.983-21c4.082-4.673 9.936-9.789 12.547-15.37z" fill="#112859"/> <path d="m812.74 533.75 1.727-2.497h0.793l1.028 1.749c5.839 7.766 9.914 18.191 14.174 26.961 1.849 3.806 5.024 8.926 5.492 13.093 2.118 4.067 3.457 8.652 5.062 12.947 1.504 4.023 3.359 8.163 4.354 12.342l1.38 4.005 4.741 18.93 3.06 16.947c0.363 2.167 0.437 5.379 1.679 7.171l-0.276 0.26-0.093 3.797c1.264 7.046 1.193 14.069 1.242 21.199 0.057 8.303 0.323 16.815-0.187 25.099-0.136 2.214-0.76 4.382-0.956 6.615-0.01 1.658 0.284 3.993-0.208 5.545-1.744 13.378-3.665 25.844-7.546 38.84-1.944 6.512-5.118 12.919-6.626 19.492l-12.562 0.134-1.619-0.182-12.872 0.112-2.538 0.027c-0.904-4.003-2.933-8.113-4.705-11.813 1.001-1.499 0.706-3.99 0.791-5.806l8e-3 -0.377c0.095-3.922-1.778-8.003-2.897-11.737l-4.539-16.221c-0.746-1.872-0.718-3.885-0.84-5.876-1.935-4.577-2.62-9.769-3.715-14.599-3.321-14.66-5.998-29.105-7.841-44.032-0.575-2.682-1.427-4.915-0.963-7.694 0.133-1.848-0.688-3.851-1.464-5.495 0.688-4.394 0.139-9.691 0.151-14.181 0.028-9.686 0.795-18.994 3.015-28.454l0.039-0.844c0.349-3.603 1.446-7.342 2.307-10.86 2.143-8.753 4.767-17.111 8.16-25.459l0.516-2.01c3.99-9.37 7.041-18.507 12.728-27.128z" fill="#05807E"/> <path d="m812.74 533.75c2.084 5.919 1.169 13.349 1.583 19.61 0.839 12.696 2.231 25.117 2.13 37.871-4.332-7.341-7.076-15.611-11.302-23.033-1.445-2.537-2.896-5.418-5.139-7.32 3.99-9.37 7.041-18.507 12.728-27.128z" fill="#149F99"/> <path d="m800.65 720.38 0.648-0.629 18.608 21.274c1.825 2.161 4.968 4.833 5.886 7.508 0.824 2.402 0.66 5.742 0.747 8.279 0.108 3.155 0.449 6.255 0.863 9.383l-12.872 0.112-2.538 0.027c-0.904-4.003-2.933-8.113-4.705-11.813 1.001-1.499 0.706-3.99 0.791-5.806l8e-3 -0.377c0.095-3.922-1.778-8.003-2.897-11.737l-4.539-16.221z" fill="#149F99"/> <path d="m808.08 748.71 6.452 17.592-2.538 0.027c-0.904-4.003-2.933-8.113-4.705-11.813 1.001-1.499 0.706-3.99 0.791-5.806z" fill="#054C57"/> <path d="m816.29 533c5.839 7.766 9.914 18.191 14.174 26.961 1.849 3.806 5.024 8.926 5.492 13.093l-1.121 0.066c-1.593 1.295-2.319 3.379-3.143 5.208l-5.065 11.712c-1.92 4.491-4.027 8.824-6.386 13.1-0.871-2.968-0.568-7.248-0.747-10.389l-1.448-28.124-1.202-23.117c-0.125-2.841-0.619-5.672-0.554-8.51z" fill="#149F99"/> <path d="m835.96 573.05c2.118 4.067 3.457 8.652 5.062 12.947 1.504 4.023 3.359 8.163 4.354 12.342-4.029 2.375-6.484 11.468-8.561 15.765l-13.095 26.487-1.209-15.594c-0.304-4.032-0.851-8.448-0.436-12.46 0.411-3.968 2.71-8.555 4.201-12.28 3.514-8.782 7.774-17.935 9.684-27.207z" fill="#149F99"/> <path d="m829.02 766.38 0.013-11.586c2e-3 -1.369-0.281-3.385 6e-3 -4.641 0.488-2.141 3.146-5.091 4.365-7.098l15.772-26.699c1.791-3.041 4.498-6.299 5.87-9.479l0.201-0.553 0.507 1.59c-1.744 13.378-3.665 25.844-7.546 38.84-1.944 6.512-5.118 12.919-6.626 19.492l-12.562 0.134z" fill="#149F99"/> <path d="m789.03 599.2c0.349-3.603 1.446-7.342 2.307-10.86 2.143-8.753 4.767-17.111 8.16-25.459l17.283 39.281c1.406 4.085 1.29 8.928 1.452 13.2l0.854 17.926c0.204 3.238 1.221 7.809 0.78 10.881-6.342-11.317-13.715-22.125-20.921-32.913-2.266-3.392-6.06-10.785-9.915-12.056z" fill="#149F99"/> <path d="m788.26 655.87 0.613-0.622c2.182 2.854 3.918 6.069 5.889 9.075l10.595 15.809c4.679 6.97 10.133 13.47 14.564 20.598 1.291 2.078 2.992 4.383 3.569 6.768 0.942 3.89 0.695 8.531 0.83 12.526l0.704 21.805-25.208-27.328c-1.935-4.577-2.62-9.769-3.715-14.599-3.321-14.66-5.998-29.105-7.841-44.032z" fill="#149F99"/> <path d="m855.87 649.45c1.264 7.046 1.193 14.069 1.242 21.199 0.057 8.303 0.323 16.815-0.187 25.099-0.136 2.214-0.76 4.382-0.956 6.615-5.45 2.037-23.774 36.543-27.334 43.951-1.196-9.247-1.24-19.185-1.268-28.52-0.011-3.636-0.354-8.07 0.538-11.59 1.344-5.306 5.306-11.203 7.808-16.206l20.157-40.548z" fill="#149F99"/> <path d="m846.76 602.35 4.741 18.93 3.06 16.947c0.363 2.167 0.437 5.379 1.679 7.171l-0.276 0.26c-1.281 0.406-1.783 0.643-2.589 1.738-3.439 4.666-5.919 11.234-8.528 16.473l-18.14 36.164c-1.125-9.597-1.206-19.499-1.761-29.16-0.365-6.372-1.697-14.136-0.765-20.37 0.519-3.464 2.703-6.986 4.201-10.141l8.46-17.682c3.262-6.724 6.11-13.905 9.918-20.33z" fill="#149F99"/> <path d="m789 600.05c2.097 3.804 3.796 7.767 6.078 11.499l15.958 24.703c3.465 5.404 8.568 11.011 9.496 17.5l0.127 0.83 2.354 45.586-35.715-51.988c0.133-1.848-0.688-3.851-1.464-5.495 0.688-4.394 0.139-9.691 0.151-14.181 0.028-9.686 0.795-18.994 3.015-28.454z" fill="#149F99"/> <path d="m908.46 324.32c4.864 7.886 8.608 16.298 12.429 24.716 5.927 13.056 11.35 26.229 16.031 39.788l-192.55 138.66-0.397-85.194 164.49-117.97z" fill="#C3E1E2"/> <path d="m489 685.6c4.134 0.35 7.66 0.77 11.043-1.967l0.464-0.386c2.436-0.307 3.249 1.538 5.793 1.772 7.245 1.41 15.004-0.525 22.265 0.543l35.374-0.073 70.622 0.039 12.821-6e-3 14.673-0.151c5.741-0.058 12.245-1.042 16.768 3.386 1.585 1.551 2.793 3.423 3.898 5.334 0.724 1.67 1.162 3.077 1.256 4.906 0.695 13.466 0.043 27.329 0.044 40.834l-3e-3 21.609c0 3.926 0.417 8.439-0.534 12.252 0.04 1.209-0.012 2.484 0.22 3.67 1.101 9.865 0.344 20.531 0.34 30.513-5e-3 11.043 0.573 22.381-0.091 33.379-0.529 7.803-0.929 15.678-0.049 23.471-1.973 9.377 2.04 21.054-1.529 30.022-0.846 2.128-2.492 3.888-4.003 5.565l-0.747 0.435c-1.161 0.722-2.2 1.536-3.55 1.893-2.156 0.571-4.857 0.154-7.076 0.07l-10.862-0.084-64.434-0.019-169.98 5e-3 -49.236 0.021-24.156 0.313c-3.429-0.089-5.304-0.818-8.196-2.641-2.299-2.513-4.423-4.959-5.179-8.394l-0.134-0.664c-0.714-3.413-0.374-7.254-0.322-10.743 0.021-5.652 0.395-11.619-0.203-17.224-0.709-4.284-0.163-9.66-0.252-14.054l0.496-77.904 2e-3 -6.85 0.166-26.881c-0.124-11.402-1.048-22.473-0.162-33.888 0.264-3.406 0.111-6.845 2.122-9.748 1.129-1.914 2.542-3.631 4.232-5.08 5.326-4.568 12.732-3.964 19.214-3.429l20.682-0.323 68.698 0.327 31.239 0.015 8.27 0.135z" fill="#4E7BB0"/> <path d="m489 685.6c4.134 0.35 7.66 0.77 11.043-1.967l0.464-0.386c2.436-0.307 3.249 1.538 5.793 1.772 7.245 1.41 15.004-0.525 22.265 0.543l35.374-0.073 70.622 0.039 12.821-6e-3 14.673-0.151c5.741-0.058 12.245-1.042 16.768 3.386 1.585 1.551 2.793 3.423 3.898 5.334l-7.626-0.42-29.412 0.205-53.618 0.069-161.49 0.111-65.876 0.086-18.523 0.095c-3.043 0.015-6.54 0.378-9.509-0.282 1.129-1.914 2.542-3.631 4.232-5.08 5.326-4.568 12.732-3.964 19.214-3.429l20.682-0.323 68.698 0.327 31.239 0.015 8.27 0.135z" fill="#71A3C8"/> <path d="m675.1 693.67 7.626 0.42c0.724 1.67 1.162 3.077 1.256 4.906 0.695 13.466 0.043 27.329 0.044 40.834l-3e-3 21.609c0 3.926 0.417 8.439-0.534 12.252 0.04 1.209-0.012 2.484 0.22 3.67 1.101 9.865 0.344 20.531 0.34 30.513-5e-3 11.043 0.573 22.381-0.091 33.379-0.529 7.803-0.929 15.678-0.049 23.471-1.973 9.377 2.04 21.054-1.529 30.022-0.846 2.128-2.492 3.888-4.003 5.565l-0.747 0.435c-1.161 0.722-2.2 1.536-3.55 1.893-2.156 0.571-4.857 0.154-7.076 0.07l-10.862-0.084-64.434-0.019-169.98 5e-3 -49.236 0.021-24.156 0.313c-3.429-0.089-5.304-0.818-8.196-2.641-2.299-2.513-4.423-4.959-5.179-8.394l-0.134-0.664c-0.714-3.413-0.374-7.254-0.322-10.743l45.781-6.409c89.97-17.559 173.89-57.753 241.47-120.02 19.758-18.205 38.313-38.084 53.351-60.407z" fill="#39679F"/> <path d="m374.34 238.4c2.195-8.109 4.154-16.29 7.168-24.15 10.716-27.943 31.04-50.407 56.43-65.877 25.136-15.314 62.772-25.442 91.092-13.613 5.035 2.103 10.432 4.855 14.837 8.077 1.996 1.461 4.363 4.076 6.491 5.127 0.773 0.382 3.323 0.281 4.283 0.315 3.644 0.127 7.328 0.069 10.885 0.961 5.102 1.278 9.724 2.803 14.523 5.002 28.578 15.247 47.675 45.912 56.908 76.181l0.97 3.407 4.871 23.504 0.85 20.397c-0.175 9.412-2.084 17.953-3.536 27.206 0.445 1.208 0.921 2.4 1.203 3.659 0.673 3.455 0.859 6.477 0.287 9.965-0.326 1.985-1.112 4.233-1.065 6.225l22.066 74.336 1.609 10.863 0.366 3.494c-0.033 4.91 0.146 9.978-0.33 14.862-1.941 19.957-10.863 38.239-25.072 52.287-8.71 8.612-18.763 14.253-28.821 21.001-6.845-2.937-13.854-8.162-21.071-9.896l-0.312-0.294c-5.6-3.866-12.488-7.684-18.736-10.419l-24.443-14.354-29.136 59.89-11.562 14.247-13.54-15.48c-10.491-12.763-18.462-24.59-24.973-39.762-2.512-5.852-5.302-12.863-5.029-19.352l-2.303-0.537-15.751 17.246c-5.401 3.639-10.728 5.396-16.848 7.421-2.825 0.959-4.816 1.803-6.755 4.131-7.199 2.967-15.188 6.49-22.704 8.395l-21.657-18.733c-19.274-18.767-26.807-41.477-27.129-67.886l0.318-4.148 1.937-10.796c2.521-9.519 6.292-18.504 10.498-27.387 2.721-5.748 5.885-11.499 7.884-17.54 2.395-7.237 3.311-14.798 4.198-22.332 0.858-4.671 0.361-10.199 0.331-14.967l-0.091-8.813-1.741-12.639-0.871-15.346c0.078-14.903 1.172-29.162 3.471-43.878z" fill="#FAB891"/> <path d="m608.48 347.19c1.202-4.077 1.488-6.608 5.033-9.444 1.138-0.91 2.579-1.095 3.986-0.82 2.761 0.539 4.542 3.427 6.038 5.573 0.312 2.508 0.274 4.447-1.388 6.491-1.426 1.753-3.782 3.005-6.041 3.178-1.91 0.146-4.045-0.709-5.359-2.101l-2.269-2.877z" fill="#FEFEFE"/> <path d="m399.66 336.2 4.429 1.982c1.759 2.846 2.534 6.423 2.631 9.749l-3.061 4.28c-2.093 0.58-5.008 1.32-7.107 0.49-2.406-0.951-3.755-3.281-4.614-5.57-0.149-1.912-0.546-4.149 0.504-5.861l0.306-0.454c1.66-2.525 4.168-3.58 6.912-4.616z" fill="#FEFEFE"/> <path d="m560.66 280.65c4.488-0.247 8.235 0.172 12.497 1.687 3.961 1.408 8.473 4.033 10.37 7.917-0.032 1.829-0.058 1.781-1.274 3.159-0.5 0.027-1.017 0.213-1.5 0.08-0.563-0.156-2.137-1.697-2.659-2.101-2.017-1.566-3.904-2.807-6.213-3.913l-0.654-0.306c-4.943-1.572-9.721-2.104-14.764-0.384-2.961 1.011-6.116 3.779-9.21 3.16-0.772-1.118-0.837-1.338-0.945-2.695 2.236-3.532 5.876-4.742 9.754-5.696l4.598-0.908z" fill="#380F2C"/> <path d="m510.12 336.25 1.08-0.064c0.363 1.052 0.426 0.582-0.115 1.53-2.915 5.113-10.28 11.415-10.085 17.737 0.061 1.957 1.505 4.091 3.072 5.264 4.166 3.115 11.6 1.946 16.415 1.177-1.863 1.858-3.628 3.421-5.822 4.898l-0.512 0.196c-3.366 1.115-7.277 1.214-10.504-0.401-4.76-2.383-6.662-5.972-8.382-10.757 1.162-4.286 2.911-8.139 5.702-11.609l0.59-0.721c2.412-2.991 5.29-5.259 8.561-7.25z" fill="#E85E58"/> <path d="m486.44 388.12c-2.15-1.85-3.457-3.706-4.953-6.08 14.694 5.359 30.419 8.337 45.75 3.825 4.715-1.387 9.066-3.732 13.853-4.918-2.41 2.598-5.431 6.466-8.6 8.146-7.11 2.209-15.425 3.922-22.885 3.758-8.077-0.178-15.537-2.299-23.165-4.731z" fill="#D0403B"/> <path d="m486.44 388.12c7.628 2.432 15.088 4.553 23.165 4.731 7.46 0.164 15.775-1.549 22.885-3.758-2.565 4.172-6.611 8.161-10.663 10.903-4.424 2.994-10.423 4.19-15.693 3.207l-0.634-0.128-2-0.477c-6.759-2.011-13.743-8.368-17.06-14.478z" fill="#E85E58"/> <path d="m618.92 304.03c1.146-0.175 2.363-0.344 3.517-0.136 1.908 0.344 3.397 2.205 4.446 3.701 1.955 2.788 3.169 6.115 2.443 9.558-1.236 5.864-4.863 10.904-9.952 14.042-2.156 1.791-5.405 2.702-8.034 3.536l2.789-28.996 4.791-1.705z" fill="#E85E58"/> <path d="m399.66 336.2c-6.737-5.304-14.177-10.563-15.294-19.838-0.426-3.531 0.366-7.97 2.768-10.739 2.857-3.292 5.887-4.404 9.893-5.71 2.225 8.022 3.193 16.496 4.775 24.672 0.609 3.144 3.239 10.805 2.287 13.597l-4.429-1.982z" fill="#E85E58"/> <path d="m454.91 305.49c1.531-0.062 2.908-0.044 4.337 0.589 4.337 1.922 6.998 5.786 8.618 10.099 1.45 3.862 0.689 8.748-1.04 12.381-2.024 4.257-5.025 5.891-9.213 7.429-1.624-0.167-3.294-0.528-4.865-0.979-3.03-0.87-5.148-3.387-6.555-6.096-2.372-4.567-2.704-9.28-1.053-14.173 1.717-5.088 5.248-7.018 9.771-9.25z" fill="#112859"/> <path d="m454.58 309.75c0.573-0.133 1.061-0.28 1.669-0.251 1.531 0.071 3.103 1.152 3.872 2.457 0.735 1.249 0.852 2.375 0.553 3.76-0.376 1.742-1.543 2.443-2.925 3.35-0.811 0.244-1.907 0.49-2.75 0.409-1.219-0.117-2.039-0.804-2.731-1.754-0.877-1.203-1.146-2.725-0.888-4.18 0.34-1.919 1.689-2.799 3.2-3.791z" fill="#FEFEFE"/> <path d="m558.72 305.5c2.441-0.047 5.406-0.203 7.702 0.739 2.097 0.861 4.327 3.548 5.319 5.525 2.039 4.06 2.493 9.346 0.985 13.667-1.711 4.902-5.359 7.625-9.836 9.825-1.042 0.172-1.781 0.278-2.842 0.102-3.407-0.567-6.733-3.024-8.658-5.824-2.485-3.613-3.415-7.593-2.503-11.901 1.255-5.926 5.032-9.029 9.833-12.133z" fill="#112859"/> <path d="m564.06 309.75c0.759-0.162 1.667-0.249 2.443-0.112 1.277 0.225 2.55 1.221 3.299 2.244 0.862 1.18 1.328 2.849 1.039 4.294-0.419 2.095-1.914 3.196-3.588 4.318-0.722 0.109-0.962 0.173-1.75 0.148-1.703-0.054-3.345-0.987-4.305-2.362-0.824-1.18-1.457-3.152-1.045-4.586 0.657-2.289 1.919-2.921 3.907-3.944z" fill="#FEFEFE"/> <path d="m452.12 282.52c5.096 0.067 9.645 1.777 14.419 3.384 1.234 1.638 1.394 1.683 1.376 3.848-0.748 0.697-0.809 1.124-1.885 1.068-2.989-0.157-6.086-1.94-8.758-3.194-13.077 5.514-29.074 8.669-43.15 10.299-5.651 0.654-11.37 0.641-16.979 1.662l-0.719-8.469 0.097-4.616 0.728-0.504 24.52-0.418 14.558-1.609c1.861-0.175 3.9-0.65 5.644 0.172 1.963 0.109 8.787-0.438 10.149-1.623z" fill="#F0A967"/> <path d="m452.12 282.52c5.096 0.067 9.645 1.777 14.419 3.384 1.234 1.638 1.394 1.683 1.376 3.848-0.748 0.697-0.809 1.124-1.885 1.068-2.989-0.157-6.086-1.94-8.758-3.194-5.1-0.748-9.771-0.989-14.656 1.119-2.031 0.877-3.782 2.274-5.733 3.301-1.489 0.784-1.496 0.64-3.07 0.147-0.92-1.316-0.826-1.233-0.564-2.832 2.423-2.616 5.533-3.784 8.722-5.218 1.963 0.109 8.787-0.438 10.149-1.623z" fill="#380F2C"/> <path d="m462.54 427.56c10.201 5.922 19.779 10.775 31.209 13.959 3.802 1.059 8.041 2.286 12 2.432 4.225 0.156 9.15-0.706 13.237-1.767 8.817-2.288 18.856-6.23 26.792-10.689l-0.396 35.024 0.41 0.146-29.136 59.89-11.562 14.247-13.54-15.48c-10.491-12.763-18.462-24.59-24.973-39.762-2.512-5.852-5.302-12.863-5.029-19.352 1.036-2.013 0.875-5.742 1.035-8.039l-0.047-30.609z" fill="#FAB891"/> <path d="m462.54 427.56c10.201 5.922 19.779 10.775 31.209 13.959 3.802 1.059 8.041 2.286 12 2.432 4.225 0.156 9.15-0.706 13.237-1.767 8.817-2.288 18.856-6.23 26.792-10.689l-0.396 35.024c-1.231-4.007-0.445-10.211-0.461-14.484-5.961 4.966-12.636 9.083-20.053 11.474-6.439 2.076-13.394 3.362-20.183 2.424-11.043-1.527-21.266-8.154-30.022-14.628-3.914-2.894-7.541-6.453-11.882-8.686 0.093 4.926 0.517 10.119-0.115 15.006l-0.079 0.544-0.047-30.609z" fill="#E85E58"/> <path d="m373.57 319.08 0.353 0.615c2.277 4.123 3.036 8.749 5.815 12.824 1.853 2.717 4.603 5.476 7.153 7.544 0.868 0.703 4.028 2.392 4.426 3.11 0.437 0.788 0.372 2.945 0.621 3.967 0.859 2.289 2.208 4.619 4.614 5.57 2.099 0.83 5.014 0.09 7.107-0.49l3.061-4.28 0.203 0.487c2.419 5.954 3.874 12.269 6.266 18.256 7.876 19.719 19.054 37.035 35.518 50.65 4.436 3.67 9.372 6.655 13.832 10.232l0.047 30.609c-0.16 2.297 1e-3 6.026-1.035 8.039l-2.303-0.537-15.751 17.246c-5.401 3.639-10.728 5.396-16.848 7.421-2.825 0.959-4.816 1.803-6.755 4.131-7.199 2.967-15.188 6.49-22.704 8.395l-21.657-18.733c-19.274-18.767-26.807-41.477-27.129-67.886l0.318-4.148 1.937-10.796c2.521-9.519 6.292-18.504 10.498-27.387 2.721-5.748 5.885-11.499 7.884-17.54 2.395-7.237 3.311-14.798 4.198-22.332 0.858-4.671 0.361-10.199 0.331-14.967z" fill="#591F3B"/> <path d="m406.72 347.94 0.203 0.487c2.419 5.954 3.874 12.269 6.266 18.256 7.876 19.719 19.054 37.035 35.518 50.65 4.436 3.67 9.372 6.655 13.832 10.232l0.047 30.609c-0.16 2.297 1e-3 6.026-1.035 8.039l-2.303-0.537-15.751 17.246c-5.401 3.639-10.728 5.396-16.848 7.421-7.142-7.717-12.786-16.029-17.722-25.304-19.101-35.893-16.822-74.949-5.268-112.82l3.061-4.28z" fill="#380F2C"/> <path d="m623.54 342.5c7.765-3.286 12.691-10.888 16.999-17.717l22.066 74.336 1.609 10.863 0.366 3.494c-0.033 4.91 0.146 9.978-0.33 14.862-1.941 19.957-10.863 38.239-25.072 52.287-8.71 8.612-18.763 14.253-28.821 21.001-6.845-2.937-13.854-8.162-21.071-9.896l-0.312-0.294c-5.6-3.866-12.488-7.684-18.736-10.419l-24.443-14.354-0.41-0.146 0.396-35.024c6.56-4.167 13-8.152 18.971-13.176 19.651-16.537 31.715-38.159 40.627-61.84l3.104-9.286 2.269 2.877c1.314 1.392 3.449 2.247 5.359 2.101 2.259-0.173 4.615-1.425 6.041-3.178 1.662-2.044 1.7-3.983 1.388-6.491z" fill="#591F3B"/> <path d="m605.38 356.48c3.251 2.497 5.141 5.859 6.911 9.488 4.13 8.464 6.612 17.867 7.784 27.194 2.951 23.471 0.422 49.019-11.147 70.032-5.526 10.035-12.912 19.236-19.953 28.245-5.6-3.866-12.488-7.684-18.736-10.419l-24.443-14.354-0.41-0.146 0.396-35.024c6.56-4.167 13-8.152 18.971-13.176 19.651-16.537 31.715-38.159 40.627-61.84z" fill="#380F2C"/> <path d="m374.34 238.4c2.195-8.109 4.154-16.29 7.168-24.15 10.716-27.943 31.04-50.407 56.43-65.877 25.136-15.314 62.772-25.442 91.092-13.613 5.035 2.103 10.432 4.855 14.837 8.077 1.996 1.461 4.363 4.076 6.491 5.127 0.773 0.382 3.323 0.281 4.283 0.315 3.644 0.127 7.328 0.069 10.885 0.961 5.102 1.278 9.724 2.803 14.523 5.002 28.578 15.247 47.675 45.912 56.908 76.181l0.97 3.407 4.871 23.504 0.85 20.397c-0.175 9.412-2.084 17.953-3.536 27.206-4.052-4.347-8.349-9.475-14.069-11.607-3.326-1.239-7.559-1.564-11.1-1.727l-0.443-0.017-0.563-1.092c-0.876-1.497-4.399-2.567-6.005-3.391-20.669-10.597-39.099-25.056-50.802-45.461-4.948-8.628-8.355-17.768-11.399-27.205l-0.981-0.409-2.588 1.85c-10.475 25.621-32.506 45.774-56.222 59.099-5.558 3.123-11.562 5.25-17.152 8.273-1.488 0.805-1.639 1.034-2.248 2.652-4.774-1.607-9.323-3.317-14.419-3.384-1.362 1.185-8.186 1.732-10.149 1.623-1.744-0.822-3.783-0.347-5.644-0.172l-14.558 1.609-24.52 0.418-0.728 0.504-0.097 4.616c-7.364 1.779-14.946 4.116-19.188 10.934-1.556 2.502-2.586 5.501-3.756 8.213l-1.741-12.639-0.871-15.346c0.078-14.903 1.172-29.162 3.471-43.878z" fill="#591F3B"/> <path d="m541.65 210.42 2.94-7.803 2.95 7.273c-1.122 1.614-1.84 2.544-1.812 4.551l-0.981-0.409-2.588 1.85c0.326-2.499 0.403-3.142-0.509-5.462z" fill="#F0A967"/> <path d="m541.65 210.42c0.912 2.32 0.835 2.963 0.509 5.462-10.475 25.621-32.506 45.774-56.222 59.099-5.558 3.123-11.562 5.25-17.152 8.273-1.488 0.805-1.639 1.034-2.248 2.652-4.774-1.607-9.323-3.317-14.419-3.384 1.837-2.117 6.084-2.519 8.696-3.366 36.12-11.712 63.447-35.028 80.836-68.736z" fill="#E09343"/> <path d="m547.54 209.89c10.987 24.592 26.078 46.51 50.272 59.714 3.578 1.953 7.341 3.662 11.109 5.215 0.982 0.405 4.399 1.373 5.012 2.009 0.248 0.259 1e-3 12.199 1e-3 13.67-0.876-1.497-4.399-2.567-6.005-3.391-20.669-10.597-39.099-25.056-50.802-45.461-4.948-8.628-8.355-17.768-11.399-27.205-0.028-2.007 0.69-2.937 1.812-4.551z" fill="#E09343"/> <path d="m552.08 181.75c1.438 0.533 3.404 5.964 4.148 7.487 2.53 5.181 5.122 10.397 8.224 15.263 8.641 13.55 20.303 25.233 33.622 34.199 5.033 3.388 10.275 5.871 15.072 9.691 1.595 4.668 2.87 11.799 1.604 16.616-0.54 0.161-0.752 0.266-1.385 0.212-1.771-0.15-4.075-1.186-5.769-1.782-12.047-4.237-22.959-13.327-31.231-22.804-5.914-6.776-10.539-14.721-14.591-22.712-5.928-11.695-10.62-22.797-9.694-36.17z" fill="#6F3B5E"/> <path d="m541.1 183.25 0.388 0.766c-4.5 18.079-14.149 33.089-29.317 44.158-18.892 13.786-43.506 23.584-67.026 24.445-4.664 0.17-9.534 0.307-14.15-0.432-8.656-1.386-17.412-3.201-24.785-8.212l-0.712-0.489c-2.7-1.83-4.92-4.182-7.226-6.472l-1.024-1.497c-0.854-1.721-0.071-3.668 0.415-5.416 1.685-6.048 3.928-11.89 6.517-17.605l0.934 0.892c13.042 11.845 29.382 15.086 46.56 14.11 19.827-1.127 40.938-7.131 57.961-17.457 11.94-7.242 22.164-16.426 31.465-26.791z" fill="#6F3B5E"/> </svg>